# 3ds Max Wavefront OBJ Exporter v0.97b - (c)2007 guruware
# File Created: 02.02.2016 20:46:52

mtllib arbol_1_2.mtl

#
# object Object002
#

v  -5.8939 7.0223 -8.0465
v  -5.5794 5.9328 -8.4031
v  -6.0000 5.9750 -8.5552
v  -6.0000 7.0223 -8.0904
v  -5.4132 5.9750 -7.9404
v  -5.8500 7.0223 -7.9404
v  -5.8939 7.0223 -7.8344
v  -5.5794 5.9328 -7.4778
v  -6.0000 5.9750 -7.3257
v  -6.0000 7.0223 -7.7904
v  -6.1061 7.0223 -7.8344
v  -6.4206 5.9328 -7.4778
v  -6.5868 5.9750 -7.9404
v  -6.1500 7.0223 -7.9404
v  -6.0000 7.1173 -7.9603
v  -6.1061 7.0223 -8.0465
v  -6.0140 7.1173 -7.9545
v  -6.4206 5.9328 -8.4031
v  -5.0984 2.0223 -8.8420
v  -4.3669 0.3679 -9.7369
v  -6.0000 0.7402 -10.4269
v  -6.0000 2.0223 -9.2154
v  -5.2575 3.0223 -8.6829
v  -4.5540 1.5682 -9.5311
v  -6.0000 1.9479 -10.0539
v  -6.0000 3.0223 -8.9904
v  -5.4166 4.0223 -8.5238
v  -4.8092 2.7231 -9.2504
v  -6.0000 2.9298 -9.6810
v  -6.0000 4.0223 -8.7654
v  -5.5757 5.0223 -8.3647
v  -5.0643 3.8099 -8.9697
v  -6.0000 3.9492 -9.3080
v  -6.0000 5.0223 -8.5404
v  -5.7348 6.0223 -8.2056
v  -5.3195 4.8857 -8.6890
v  -6.0000 4.9442 -8.9350
v  -6.0000 6.0223 -8.3154
v  -3.6267 0.7402 -7.9404
v  -4.7250 2.0223 -7.9404
v  -3.9827 1.9479 -7.9404
v  -4.9500 3.0223 -7.9404
v  -4.3387 2.9298 -7.9404
v  -5.1750 4.0223 -7.9404
v  -4.6947 3.9492 -7.9404
v  -5.4000 5.0223 -7.9404
v  -5.0507 4.9442 -7.9404
v  -5.6250 6.0223 -7.9404
v  -5.0984 2.0223 -7.0389
v  -4.3669 0.3679 -6.1440
v  -5.2575 3.0223 -7.1980
v  -4.5540 1.5682 -6.3498
v  -5.4166 4.0223 -7.3571
v  -4.8092 2.7231 -6.6305
v  -5.5757 5.0223 -7.5162
v  -5.0643 3.8099 -6.9112
v  -5.7348 6.0223 -7.6753
v  -5.3195 4.8857 -7.1919
v  -6.0000 0.7402 -5.4540
v  -6.0000 2.0223 -6.6654
v  -6.0000 1.9479 -5.8269
v  -6.0000 3.0223 -6.8904
v  -6.0000 2.9298 -6.1999
v  -6.0000 4.0223 -7.1154
v  -6.0000 3.9492 -6.5729
v  -6.0000 5.0223 -7.3404
v  -6.0000 4.9442 -6.9459
v  -6.0000 6.0223 -7.5654
v  -6.9016 2.0223 -7.0389
v  -7.6331 0.3679 -6.1440
v  -6.7425 3.0223 -7.1980
v  -7.4460 1.5682 -6.3498
v  -6.5834 4.0223 -7.3571
v  -7.1908 2.7231 -6.6305
v  -6.4243 5.0223 -7.5162
v  -6.9357 3.8099 -6.9112
v  -6.2652 6.0223 -7.6753
v  -6.6805 4.8857 -7.1919
v  -8.3733 0.7402 -7.9404
v  -7.2750 2.0223 -7.9404
v  -8.0173 1.9479 -7.9404
v  -7.0500 3.0223 -7.9404
v  -7.6613 2.9298 -7.9404
v  -6.8250 4.0223 -7.9404
v  -7.3053 3.9492 -7.9404
v  -6.6000 5.0223 -7.9404
v  -6.9493 4.9442 -7.9404
v  -6.3750 6.0223 -7.9404
v  -7.6331 0.3679 -9.7369
v  -6.9016 2.0223 -8.8420
v  -7.4460 1.5682 -9.5311
v  -6.7425 3.0223 -8.6829
v  -7.1908 2.7231 -9.2504
v  -6.5834 4.0223 -8.5238
v  -6.9357 3.8099 -8.9697
v  -6.4243 5.0223 -8.3647
v  -6.6805 4.8857 -8.6890
v  -6.2652 6.0223 -8.2056
v  -4.9393 1.0223 -9.0011
v  -6.0000 1.0223 -9.4404
v  -4.5000 1.0223 -7.9404
v  -4.9393 1.0223 -6.8798
v  -6.0000 1.0223 -6.4404
v  -7.0607 1.0223 -6.8798
v  -7.5000 1.0223 -7.9404
v  -7.0607 1.0223 -9.0011
v  -6.3797 1.2648 -8.3202
v  -6.0000 1.2648 -8.4775
v  -6.5370 1.2648 -7.9404
v  -6.3797 1.2648 -7.5607
v  -6.0000 1.2648 -7.4034
v  -5.6203 1.2648 -7.5607
v  -5.4630 1.2648 -7.9404
v  -5.6203 1.2648 -8.3202
v  -6.0000 7.1173 -7.9206
v  -5.9860 7.1173 -7.9264
v  -5.9802 7.1173 -7.9404
v  -6.0198 7.1173 -7.9404
v  -5.9860 7.1173 -7.9545
v  -6.0140 7.1173 -7.9264
v  -6.3797 -0.5138 -8.3202
v  -6.3418 0.3755 -8.2822
v  -6.0000 0.3755 -8.4238
v  -6.0000 -0.5138 -8.4775
v  -6.5370 -0.5138 -7.9404
v  -6.4833 0.3755 -7.9404
v  -6.3797 -0.5138 -7.5607
v  -6.3418 0.3755 -7.5987
v  -6.0000 -0.5138 -7.4034
v  -6.0000 0.3755 -7.4571
v  -5.6203 -0.5138 -7.5607
v  -5.6582 0.3755 -7.5987
v  -5.4630 -0.5138 -7.9404
v  -5.5167 0.3755 -7.9404
v  -5.6203 -0.5138 -8.3202
v  -5.6582 0.3755 -8.2822
# 136 vertices

vn 0.3492 0.3805 -0.8563
vn 0.8653 0.3621 -0.3466
vn 0.8653 0.3621 0.3466
vn 0.3492 0.3805 0.8563
vn -0.3492 0.3805 0.8563
vn -0.8653 0.3621 0.3466
vn -0.2372 0.7847 -0.5727
vn -0.3492 0.3805 -0.8563
vn -0.8653 0.3621 -0.3466
vn 0.3829 0.5995 -0.7028
vn 0.3696 0.6236 -0.6888
vn 0.3454 0.5892 -0.7304
vn 0.3456 0.5387 -0.7683
vn 0.3362 0.4696 -0.8163
vn 0.7289 0.5698 -0.3795
vn 0.7151 0.5954 -0.3663
vn 0.7537 0.5597 -0.3446
vn 0.7878 0.5106 -0.3445
vn 0.8305 0.4444 -0.3359
vn 0.7289 0.5698 0.3795
vn 0.7151 0.5954 0.3663
vn 0.7537 0.5597 0.3446
vn 0.7878 0.5106 0.3445
vn 0.8305 0.4444 0.3359
vn 0.3829 0.5995 0.7028
vn 0.3696 0.6236 0.6888
vn 0.3454 0.5892 0.7304
vn 0.3456 0.5387 0.7683
vn 0.3362 0.4696 0.8163
vn -0.3829 0.5995 0.7028
vn -0.3696 0.6236 0.6888
vn -0.3454 0.5892 0.7304
vn -0.3456 0.5387 0.7683
vn -0.3362 0.4696 0.8163
vn -0.7289 0.5698 0.3795
vn -0.7151 0.5954 0.3663
vn -0.7537 0.5597 0.3446
vn -0.7878 0.5106 0.3445
vn -0.8305 0.4444 0.3359
vn -0.3829 0.5995 -0.7028
vn -0.3696 0.6236 -0.6888
vn -0.3454 0.5892 -0.7304
vn -0.3456 0.5387 -0.7683
vn -0.3362 0.4696 -0.8163
vn -0.7289 0.5698 -0.3795
vn -0.7151 0.5954 -0.3663
vn -0.7537 0.5597 -0.3446
vn -0.7878 0.5106 -0.3445
vn -0.8305 0.4444 -0.3359
vn -0.1527 -0.9573 0.2454
vn -0.2695 -0.9501 0.1574
vn -0.2695 -0.9501 -0.1574
vn -0.1527 -0.9573 -0.2454
vn 0.1527 -0.9573 -0.2454
vn 0.2695 -0.9501 -0.1574
vn 0.1527 -0.9573 0.2454
vn 0.2695 -0.9501 0.1574
vn -0.1412 -0.9612 0.2368
vn -0.2602 -0.9544 0.1462
vn -0.2602 -0.9544 -0.1462
vn -0.1412 -0.9612 -0.2368
vn 0.1412 -0.9612 -0.2368
vn 0.2602 -0.9544 -0.1462
vn 0.1412 -0.9612 0.2368
vn 0.2602 -0.9544 0.1462
vn -0.1709 -0.9611 0.2168
vn -0.2359 -0.9564 0.1720
vn -0.2359 -0.9564 -0.1720
vn -0.1709 -0.9611 -0.2168
vn 0.1709 -0.9611 -0.2168
vn 0.2359 -0.9564 -0.1720
vn 0.1709 -0.9611 0.2168
vn 0.2359 -0.9564 0.1720
vn -0.1897 -0.9546 0.2297
vn -0.2493 -0.9496 0.1901
vn -0.2493 -0.9496 -0.1901
vn -0.1897 -0.9546 -0.2297
vn 0.1897 -0.9546 -0.2297
vn 0.2493 -0.9496 -0.1901
vn 0.1897 -0.9546 0.2297
vn 0.2493 -0.9496 0.1901
vn -0.2432 -0.9402 0.2386
vn -0.2562 -0.9364 0.2398
vn -0.2562 -0.9364 -0.2398
vn -0.2432 -0.9402 -0.2386
vn 0.2432 -0.9402 -0.2386
vn 0.2562 -0.9364 -0.2398
vn 0.2432 -0.9402 0.2386
vn 0.2562 -0.9364 0.2398
vn -0.2825 -0.8790 0.3841
vn -0.4153 -0.8642 0.2840
vn -0.4153 -0.8642 -0.2840
vn -0.2825 -0.8790 -0.3841
vn 0.2825 -0.8790 -0.3841
vn 0.4153 -0.8642 -0.2840
vn 0.2825 -0.8790 0.3841
vn 0.4153 -0.8642 0.2840
vn 0.1006 -0.9648 0.2429
vn 0.2429 -0.9648 0.1006
vn 0.2429 -0.9648 -0.1006
vn 0.1006 -0.9648 -0.2429
vn -0.1006 -0.9648 -0.2429
vn -0.2429 -0.9648 -0.1006
vn -0.2429 -0.9648 0.1006
vn -0.1006 -0.9648 0.2429
vn 0.0000 1.0000 0.0000
vn -0.5727 0.7847 -0.2372
vn -0.5727 0.7847 0.2372
vn -0.2372 0.7847 0.5727
vn 0.2372 0.7847 0.5727
vn 0.5727 0.7847 0.2372
vn 0.5727 0.7847 -0.2372
vn 0.2372 0.7847 -0.5727
vn -0.3821 0.0557 -0.9224
vn -0.9224 0.0557 -0.3821
vn -0.9224 0.0557 0.3821
vn -0.3821 0.0557 0.9224
vn 0.3821 0.0557 0.9224
vn 0.9224 0.0557 0.3821
vn 0.9224 0.0557 -0.3821
vn 0.3821 0.0557 -0.9224
vn 0.0000 -1.0000 -0.0000
vn -0.3821 -0.0557 -0.9224
vn -0.9224 -0.0557 -0.3821
vn -0.9224 -0.0557 0.3821
vn -0.3821 -0.0557 0.9224
vn 0.3821 -0.0557 0.9224
vn 0.9224 -0.0557 0.3821
vn 0.9224 -0.0557 -0.3821
vn 0.3821 -0.0557 -0.9224
# 130 vertex normals

g Object002
usemtl Norm_Leaves
s off
f 1//1 2//1 3//1 4//1 
f 5//2 2//2 1//2 6//2 
f 7//3 8//3 5//3 6//3 
f 9//4 8//4 7//4 10//4 
f 11//5 12//5 9//5 10//5 
f 13//6 12//6 11//6 14//6 
f 15//7 4//7 16//7 17//7 
f 3//8 18//8 16//8 4//8 
f 16//9 18//9 13//9 14//9 
f 19//10 20//10 21//10 22//10 
f 23//11 24//11 25//11 26//11 
f 27//12 28//12 29//12 30//12 
f 31//13 32//13 33//13 34//13 
f 35//14 36//14 37//14 38//14 
f 39//15 20//15 19//15 40//15 
f 41//16 24//16 23//16 42//16 
f 43//17 28//17 27//17 44//17 
f 45//18 32//18 31//18 46//18 
f 47//19 36//19 35//19 48//19 
f 49//20 50//20 39//20 40//20 
f 51//21 52//21 41//21 42//21 
f 53//22 54//22 43//22 44//22 
f 55//23 56//23 45//23 46//23 
f 57//24 58//24 47//24 48//24 
f 59//25 50//25 49//25 60//25 
f 61//26 52//26 51//26 62//26 
f 63//27 54//27 53//27 64//27 
f 65//28 56//28 55//28 66//28 
f 67//29 58//29 57//29 68//29 
f 69//30 70//30 59//30 60//30 
f 71//31 72//31 61//31 62//31 
f 73//32 74//32 63//32 64//32 
f 75//33 76//33 65//33 66//33 
f 77//34 78//34 67//34 68//34 
f 79//35 70//35 69//35 80//35 
f 81//36 72//36 71//36 82//36 
f 83//37 74//37 73//37 84//37 
f 85//38 76//38 75//38 86//38 
f 87//39 78//39 77//39 88//39 
f 21//40 89//40 90//40 22//40 
f 25//41 91//41 92//41 26//41 
f 29//42 93//42 94//42 30//42 
f 33//43 95//43 96//43 34//43 
f 37//44 97//44 98//44 38//44 
f 90//45 89//45 79//45 80//45 
f 92//46 91//46 81//46 82//46 
f 94//47 93//47 83//47 84//47 
f 96//48 95//48 85//48 86//48 
f 98//49 97//49 87//49 88//49 
f 2//50 35//50 38//50 3//50 
f 5//51 48//51 35//51 2//51 
f 57//52 48//52 5//52 8//52 
f 68//53 57//53 8//53 9//53 
f 12//54 77//54 68//54 9//54 
f 13//55 88//55 77//55 12//55 
f 38//56 98//56 18//56 3//56 
f 98//57 88//57 13//57 18//57 
f 36//58 31//58 34//58 37//58 
f 47//59 46//59 31//59 36//59 
f 55//60 46//60 47//60 58//60 
f 66//61 55//61 58//61 67//61 
f 78//62 75//62 66//62 67//62 
f 87//63 86//63 75//63 78//63 
f 34//64 96//64 97//64 37//64 
f 96//65 86//65 87//65 97//65 
f 27//66 30//66 33//66 32//66 
f 45//67 44//67 27//67 32//67 
f 53//68 44//68 45//68 56//68 
f 64//69 53//69 56//69 65//69 
f 73//70 64//70 65//70 76//70 
f 85//71 84//71 73//71 76//71 
f 30//72 94//72 95//72 33//72 
f 94//73 84//73 85//73 95//73 
f 23//74 26//74 29//74 28//74 
f 43//75 42//75 23//75 28//75 
f 51//76 42//76 43//76 54//76 
f 63//77 62//77 51//77 54//77 
f 71//78 62//78 63//78 74//78 
f 83//79 82//79 71//79 74//79 
f 29//80 26//80 92//80 93//80 
f 92//81 82//81 83//81 93//81 
f 19//82 22//82 25//82 24//82 
f 41//83 40//83 19//83 24//83 
f 49//84 40//84 41//84 52//84 
f 61//85 60//85 49//85 52//85 
f 69//86 60//86 61//86 72//86 
f 81//87 80//87 69//87 72//87 
f 25//88 22//88 90//88 91//88 
f 90//89 80//89 81//89 91//89 
f 20//90 99//90 100//90 21//90 
f 39//91 101//91 99//91 20//91 
f 102//92 101//92 39//92 50//92 
f 103//93 102//93 50//93 59//93 
f 70//94 104//94 103//94 59//94 
f 79//95 105//95 104//95 70//95 
f 100//96 106//96 89//96 21//96 
f 106//97 105//97 79//97 89//97 
f 107//98 106//98 100//98 108//98 
f 109//99 105//99 106//99 107//99 
f 110//100 104//100 105//100 109//100 
f 111//101 103//101 104//101 110//101 
f 112//102 102//102 103//102 111//102 
f 113//103 101//103 102//103 112//103 
f 114//104 99//104 101//104 113//104 
f 108//105 100//105 99//105 114//105 
f 115//106 116//106 117//106 118//106 
f 117//106 119//106 15//106 118//106 
f 15//106 17//106 118//106 
f 115//106 118//106 120//106 
f 17//107 16//107 14//107 118//107 
f 118//108 14//108 11//108 120//108 
f 120//109 11//109 10//109 115//109 
f 115//110 10//110 7//110 116//110 
f 116//111 7//111 6//111 117//111 
f 117//112 6//112 1//112 119//112 
f 119//113 1//113 4//113 15//113 
usemtl Norm_Branches
f 121//114 122//114 123//114 124//114 
f 125//115 126//115 122//115 121//115 
f 127//116 128//116 126//116 125//116 
f 129//117 130//117 128//117 127//117 
f 131//118 132//118 130//118 129//118 
f 133//119 134//119 132//119 131//119 
f 135//120 136//120 134//120 133//120 
f 124//121 123//121 136//121 135//121 
f 127//122 125//122 121//122 131//122 
f 121//122 124//122 135//122 131//122 
f 135//122 133//122 131//122 
f 127//122 131//122 129//122 
f 122//123 107//123 108//123 123//123 
f 126//124 109//124 107//124 122//124 
f 128//125 110//125 109//125 126//125 
f 130//126 111//126 110//126 128//126 
f 132//127 112//127 111//127 130//127 
f 134//128 113//128 112//128 132//128 
f 136//129 114//129 113//129 134//129 
f 123//130 108//130 114//130 136//130 
# 132 polygons - 4 triangles

