# 3ds Max Wavefront OBJ Exporter v0.97b - (c)2007 guruware
# File Created: 03.02.2016 16:47:46

mtllib Arbol_seco_pequeño.mtl

#
# object Object008
#

v  0.9731 13.8899 -6.4179
v  -0.8095 13.9669 -5.6830
v  2.6119 28.7363 -6.0753
v  4.0644 28.7363 -6.6770
v  5.4631 28.1939 -6.0245
v  2.7292 13.5187 -5.6453
v  3.4781 13.6049 -3.8633
v  6.0796 28.3440 -4.5861
v  2.7685 13.9601 -2.1038
v  5.5161 28.7283 -3.1697
v  1.0115 14.3236 -1.3932
v  4.1026 29.1217 -2.6049
v  2.4404 28.5478 -3.1386
v  -0.8041 14.3084 -2.1299
v  4.4145 43.6297 -7.8872
v  4.8599 43.6297 -8.9623
v  4.3839 40.9223 -8.4015
v  3.8981 40.9341 -7.2850
v  -1.5438 14.0459 -3.9002
v  2.0103 28.7363 -4.6229
v  0.0568 -0.4914 -0.4237
v  -1.9876 -0.4914 -1.2706
v  -2.8344 -0.4914 -3.3150
v  2.9481 -0.4914 -3.3150
v  -1.9876 -0.4914 -5.3594
v  0.0568 -0.4914 -6.2063
v  2.1013 -0.4914 -5.3594
v  2.1013 -0.4914 -1.2706
v  4.1149 55.7340 -6.9639
v  3.9601 55.5715 -6.5334
v  4.4270 41.5556 -6.2659
v  4.9179 44.1717 -6.9239
v  5.9633 44.0268 -6.4334
v  5.5314 41.3079 -5.7380
v  6.9985 43.6424 -6.8006
v  6.6626 40.9306 -6.1046
v  10.7494 42.6727 -6.3845
v  7.1085 40.5480 -7.1911
v  11.0293 42.1912 -7.0471
v  10.8508 42.1914 -7.9110
v  6.6336 40.3801 -8.3215
v  6.9741 43.0641 -8.8716
v  5.5279 40.9223 -8.8754
v  5.9350 43.6297 -9.4077
v  4.1651 55.5015 -6.0989
v  4.6100 55.5649 -5.9149
v  5.0340 55.7246 -6.0893
v  7.2544 44.1673 -7.7163
v  5.1889 55.8870 -6.5199
v  4.9839 55.9570 -6.9544
v  4.5390 55.8936 -7.1383
v  2.1042 31.5694 -5.1931
v  2.7306 31.5167 -6.4533
v  5.4958 31.5099 -3.6867
v  4.0313 31.8626 -3.3225
v  6.0363 31.1835 -5.0391
v  5.4509 31.0560 -6.4101
v  4.1135 31.5167 -7.0262
v  -2.0642 33.7491 0.5860
v  -2.0255 35.2890 0.1316
v  -3.4225 33.5871 -0.7515
v  -3.3063 35.1575 -1.1347
v  -3.0592 33.1974 0.2167
v  -8.0326 42.4797 3.8336
v  -7.6645 42.8741 3.5039
v  -8.4382 42.5205 3.2118
v  -8.0330 42.9175 2.9264
v  -8.4767 42.5155 3.6326
v  2.7215 32.4671 -3.9801
v  16.4541 46.2944 -6.6280
v  16.6325 46.2184 -6.9315
v  16.5474 45.9854 -7.2462
v  10.8347 43.6902 -8.2821
v  10.7331 44.1777 -6.8065
v  16.1494 46.8970 -6.9488
v  16.2175 46.9783 -7.2867
v  16.2455 46.5905 -7.5398
v  4.0164 32.9252 -3.3423
v  2.7066 33.5296 -3.9999
v  2.0893 32.6320 -5.2129
v  7.1265 44.0702 -6.8430
v  7.3824 44.5952 -7.7587
v  7.1021 43.4919 -8.9140
v  3.9151 55.8084 -6.4845
v  4.0761 55.9579 -6.9175
v  -3.2348 35.6201 -1.2409
v  -8.1332 42.8469 3.8996
v  -8.5773 42.8828 3.6986
v  -8.5388 42.8877 3.2778
v  -8.0899 43.3433 2.9486
v  -7.7214 43.3000 3.5261
v  16.2208 46.7558 -7.5819
v  16.1929 47.1435 -7.3288
v  16.1248 47.0622 -6.9909
v  10.7244 44.1181 -8.3962
v  10.6227 44.6056 -6.9206
v  -2.7269 36.3124 -0.5639
v  -1.9540 35.7516 0.0254
v  -7.8334 43.5535 3.2110
v  10.8311 44.9734 -7.7053
v  4.9905 55.9432 -6.0380
v  5.1515 56.0926 -6.4710
v  4.9504 56.1588 -6.9080
v  4.1162 55.7423 -6.0475
v  4.5049 56.1030 -7.0929
v  4.5617 55.7981 -5.8626
# 106 vertices

vn -0.3798 0.0632 -0.9229
vn 0.3865 -0.0961 -0.9173
vn 0.9104 -0.1791 -0.3729
vn 0.9073 -0.1404 0.3964
vn 0.3728 -0.0021 0.9279
vn -0.3615 0.1492 0.9204
vn -0.9169 0.0845 -0.3900
vn -0.9039 0.1997 -0.3781
vn -0.9164 0.2348 0.3240
vn 0.0000 -1.0000 -0.0000
vn -0.3817 0.0106 -0.9242
vn 0.3887 -0.0373 -0.9206
vn 0.9222 -0.0494 -0.3835
vn 0.9247 -0.0204 0.3802
vn 0.3818 0.0357 0.9236
vn -0.3785 0.0842 0.9218
vn -0.9217 0.0665 -0.3822
vn -0.9214 0.0962 0.3766
vn -0.9291 0.0052 -0.3698
vn -0.9111 0.2505 0.3274
vn -0.3666 0.2878 0.8847
vn 0.3720 0.1807 0.9105
vn 0.3387 -0.7802 0.5259
vn 0.3932 -0.9180 -0.0516
vn 0.3437 -0.2304 -0.9104
vn -0.3798 -0.1232 -0.9168
vn -0.8758 -0.0898 0.4743
vn -0.4148 -0.0914 0.9053
vn 0.3480 0.0001 0.9375
vn 0.9281 0.1292 0.3491
vn 0.8941 0.1981 -0.4017
vn 0.4828 0.2066 -0.8510
vn -0.3904 0.1254 -0.9121
vn -0.9107 -0.0350 -0.4116
vn 0.3492 0.2100 0.9132
vn 0.9327 0.0716 0.3535
vn 0.9200 -0.0482 -0.3889
vn 0.3804 -0.1219 -0.9168
vn -0.3804 -0.1086 -0.9184
vn 0.5739 0.2203 0.7887
vn -0.6497 -0.1311 -0.7488
vn -0.6449 -0.7638 0.0286
vn -0.0215 -0.5943 0.8040
vn 0.6518 0.1632 0.7406
vn -0.6939 -0.0600 -0.7176
vn -0.8571 -0.5122 0.0550
vn -0.1887 -0.4427 0.8766
vn -0.9024 0.0744 -0.4243
vn -0.9200 0.2467 0.3045
vn -0.3391 0.2860 0.8962
vn 0.3159 0.1933 0.9289
vn 0.9251 -0.0180 0.3794
vn 0.9119 -0.1892 -0.3642
vn 0.3418 -0.2303 -0.9111
vn 0.4541 -0.6614 0.5970
vn 0.5671 -0.8229 0.0357
vn 0.1863 -0.2251 -0.9564
vn -0.0401 0.2589 0.9651
vn 0.7731 0.5580 0.3016
vn 0.8785 0.2760 -0.3900
vn 0.2700 -0.2527 -0.9291
vn -0.1438 0.3094 0.9400
vn 0.4448 -0.0105 -0.8956
vn 0.8900 0.0040 -0.4559
vn -0.9552 0.2750 -0.1093
vn -0.9584 0.2830 -0.0378
vn -0.9241 -0.0913 -0.3710
vn -0.6149 -0.0422 -0.7874
vn -0.4150 -0.2697 0.8689
vn -0.9645 -0.2479 -0.0911
vn -0.5695 -0.0218 -0.8217
vn 0.6431 0.0427 0.7646
vn -0.7016 -0.0556 -0.7104
vn 0.9885 0.1259 -0.0838
vn 0.9493 0.2027 0.2402
vn 0.2358 -0.1970 -0.9516
vn -0.0921 0.2340 0.9679
vn -0.0235 0.7719 -0.6354
vn 0.4647 0.8841 0.0500
vn 0.2590 0.5825 -0.7705
vn 0.7540 0.6357 -0.1653
vn -0.6864 0.7272 0.0006
vn -0.2238 0.7272 0.6489
vn 0.5789 0.0673 0.8126
vn 0.5129 0.0517 0.8569
vn -0.1158 0.8921 0.4368
vn -0.0395 0.6895 -0.7232
vn -0.3846 0.8858 0.2597
vn -0.1813 0.6020 -0.7776
vn -0.0153 0.1802 0.9835
vn 0.1735 -0.1806 -0.9681
vn -0.2197 0.9445 0.2442
vn -0.2198 0.9445 0.2442
vn -0.8912 -0.2541 0.3757
vn -0.3381 -0.2668 0.9025
vn 0.4138 -0.1227 0.9020
vn 0.9246 0.0889 0.3703
vn 0.8931 0.2437 -0.3782
vn 0.3401 0.2579 -0.9043
vn -0.4136 0.1218 -0.9023
# 100 vertex normals

g Object008
usemtl Snow_Branches
s off
f 1//1 2//1 3//1 4//1 
f 5//2 6//2 1//2 4//2 
f 7//3 6//3 5//3 8//3 
f 9//4 7//4 8//4 10//4 
f 11//5 9//5 10//5 12//5 
f 13//6 14//6 11//6 12//6 
f 15//7 16//7 17//7 18//7 
f 2//8 19//8 20//8 3//8 
f 20//9 19//9 14//9 13//9 
f 21//10 22//10 23//10 24//10 
f 23//10 25//10 26//10 24//10 
f 26//10 27//10 24//10 
f 21//10 24//10 28//10 
f 26//11 25//11 2//11 1//11 
f 6//12 27//12 26//12 1//12 
f 24//13 27//13 6//13 7//13 
f 28//14 24//14 7//14 9//14 
f 21//15 28//15 9//15 11//15 
f 14//16 22//16 21//16 11//16 
f 25//17 23//17 19//17 2//17 
f 19//18 23//18 22//18 14//18 
f 29//19 16//19 15//19 30//19 
f 15//20 18//20 31//20 32//20 
f 33//21 32//21 31//21 34//21 
f 35//22 33//22 34//22 36//22 
f 37//23 36//23 38//23 39//23 
f 40//24 39//24 38//24 41//24 
f 42//25 41//25 43//25 44//25 
f 16//26 44//26 43//26 17//26 
f 30//27 15//27 32//27 45//27 
f 46//28 45//28 32//28 33//28 
f 47//29 46//29 33//29 35//29 
f 47//30 35//30 48//30 49//30 
f 50//31 49//31 48//31 42//31 
f 50//32 42//32 44//32 51//32 
f 51//33 44//33 16//33 29//33 
f 52//34 53//34 3//34 20//34 
f 54//35 55//35 12//35 10//35 
f 56//36 54//36 10//36 8//36 
f 56//37 8//37 5//37 57//37 
f 57//38 5//38 4//38 58//38 
f 53//39 58//39 4//39 3//39 
f 59//40 12//40 55//40 60//40 
f 61//41 62//41 52//41 20//41 
f 61//42 20//42 13//42 63//42 
f 59//43 63//43 13//43 12//43 
f 64//44 59//44 60//44 65//44 
f 66//45 67//45 62//45 61//45 
f 66//46 61//46 63//46 68//46 
f 64//47 68//47 63//47 59//47 
f 18//48 17//48 53//48 52//48 
f 18//49 52//49 69//49 31//49 
f 34//50 31//50 69//50 55//50 
f 36//51 34//51 55//51 54//51 
f 36//52 54//52 56//52 38//52 
f 38//53 56//53 57//53 41//53 
f 41//54 57//54 58//54 43//54 
f 17//26 43//26 58//26 53//26 
f 70//55 37//55 39//55 71//55 
f 72//56 71//56 39//56 40//56 
f 40//57 41//57 42//57 73//57 
f 37//58 74//58 35//58 36//58 
f 75//59 70//59 71//59 76//59 
f 77//60 76//60 71//60 72//60 
f 72//61 40//61 73//61 77//61 
f 70//62 75//62 74//62 37//62 
f 78//63 55//63 69//63 79//63 
f 80//64 79//64 69//64 52//64 
f 81//65 82//65 48//65 35//65 
f 83//66 42//66 48//66 82//66 
usemtl Snow
f 84//67 85//67 29//67 30//67 
f 80//68 52//68 62//68 86//68 
f 87//69 88//69 68//69 64//69 
f 89//70 66//70 68//70 88//70 
f 89//71 90//71 67//71 66//71 
f 87//72 64//72 65//72 91//72 
f 86//73 62//73 67//73 90//73 
f 92//74 93//74 76//74 77//74 
f 94//75 75//75 76//75 93//75 
f 95//76 92//76 77//76 73//76 
f 96//77 74//77 75//77 94//77 
f 86//78 97//78 79//78 80//78 
f 98//79 78//79 79//79 97//79 
f 90//80 99//80 97//80 86//80 
f 91//81 98//81 97//81 99//81 
f 99//82 90//82 89//82 88//82 
f 91//83 99//83 88//83 87//83 
f 98//84 91//84 65//84 60//84 
f 78//85 98//85 60//85 55//85 
f 96//86 100//86 82//86 81//86 
f 95//87 83//87 82//87 100//87 
f 94//88 93//88 100//88 96//88 
f 92//89 95//89 100//89 93//89 
f 81//90 35//90 74//90 96//90 
f 83//91 95//91 73//91 42//91 
f 101//92 102//92 103//92 104//92 
f 103//92 105//92 85//92 104//92 
f 85//93 84//93 104//93 
f 101//92 104//92 106//92 
f 104//94 84//94 30//94 45//94 
f 104//95 45//95 46//95 106//95 
f 106//96 46//96 47//96 101//96 
f 101//97 47//97 49//97 102//97 
f 102//98 49//98 50//98 103//98 
f 105//99 103//99 50//99 51//99 
f 85//100 105//100 51//100 29//100 
# 102 polygons - 4 triangles

