# 3ds Max Wavefront OBJ Exporter v0.97b - (c)2007 guruware
# File Created: 16.02.2016 19:43:17

mtllib Banderola.mtl

#
# object Box002
#

v  -10.6207 58.6155 -1.9553
v  -10.6207 51.9054 -1.9553
v  -2.0806 55.2604 -2.0002
v  -10.6207 51.9054 -2.0450
v  -10.6207 58.6155 -2.0450
v  -10.3479 0.0000 -2.0223
v  -10.7416 0.0000 -2.4160
v  -10.7416 59.0551 -2.4160
v  -10.3479 59.0551 -2.0223
v  -11.1353 0.0000 -2.0223
v  -11.1353 59.0551 -2.0223
v  -10.7416 0.0000 -1.6286
v  -10.7416 59.0551 -1.6286
v  -10.7344 59.8572 -2.0100
v  -10.7344 59.6761 -2.4472
v  -11.0435 59.6761 -2.3192
v  -11.1715 59.6761 -2.0100
v  -11.0435 59.6761 -1.7009
v  -10.7344 59.6761 -1.5729
v  -10.4253 59.6761 -1.7009
v  -10.2972 59.6761 -2.0100
v  -10.4253 59.6761 -2.3192
v  -11.1715 59.2390 -2.4472
v  -10.7344 59.2390 -2.6283
v  -11.3526 59.2390 -2.0100
v  -11.1715 59.2390 -1.5729
v  -10.7344 59.2390 -1.3918
v  -10.2972 59.2390 -1.5729
v  -10.1161 59.2390 -2.0100
v  -10.2972 59.2390 -2.4472
v  -11.0435 58.8018 -2.3192
v  -10.7344 58.8018 -2.4472
v  -11.1715 58.8018 -2.0100
v  -11.0435 58.8018 -1.7009
v  -10.7344 58.8018 -1.5729
v  -10.4253 58.8018 -1.7009
v  -10.2972 58.8018 -2.0100
v  -10.4253 58.8018 -2.3192
v  -10.7344 58.6207 -2.0100
# 39 vertices

vn 0.0052 0.0000 1.0000
vn 0.0052 0.0000 -1.0000
vn 0.3657 -0.9308 -0.0000
vn -1.0000 0.0000 -0.0000
vn 0.3657 0.9308 -0.0000
vn 1.0000 0.0000 0.0000
vn -0.0000 0.0000 -1.0000
vn -1.0000 0.0000 0.0000
vn -0.0000 0.0000 1.0000
vn 0.0000 -1.0000 -0.0000
vn 0.0000 1.0000 -0.0000
vn -0.0000 1.0000 0.0000
vn 0.0000 0.6630 -0.7486
vn -0.5294 0.6630 -0.5294
vn -0.7486 0.6630 0.0000
vn -0.5294 0.6630 0.5294
vn -0.0000 0.6630 0.7486
vn 0.5294 0.6630 0.5294
vn 0.7486 0.6630 0.0000
vn 0.5294 0.6630 -0.5294
vn -0.7071 0.0000 -0.7071
vn 0.0000 0.0000 -1.0000
vn -1.0000 -0.0000 0.0000
vn -0.7071 -0.0000 0.7071
vn 0.7071 0.0000 0.7071
vn 0.7071 0.0000 -0.7071
vn -0.5294 -0.6630 -0.5294
vn 0.0000 -0.6630 -0.7486
vn -0.7486 -0.6630 0.0000
vn -0.5294 -0.6630 0.5294
vn -0.0000 -0.6630 0.7486
vn 0.5294 -0.6630 0.5294
vn 0.7486 -0.6630 0.0000
vn 0.5294 -0.6630 -0.5294
vn -0.0000 -1.0000 0.0000
# 35 vertex normals

vt 1.0000 1.0000 0.0000
vt 0.0000 1.0000 0.0000
vt 0.5000 0.0000 0.0000
vt 0.0000 0.5000 0.0000
vt 1.0000 0.0000 0.0000
vt 0.0000 0.0000 0.0000
vt 1.0000 0.5000 0.0000
vt 0.7500 0.0000 1.0000
vt 1.0000 0.0000 1.0000
vt 1.0000 1.0000 1.0000
vt 0.7500 1.0000 1.0000
vt 0.0000 0.0000 1.0000
vt 0.2500 0.0000 1.0000
vt 0.2500 1.0000 1.0000
vt 0.0000 1.0000 1.0000
vt 0.5000 0.0000 1.0000
vt 0.5000 1.0000 1.0000
vt 0.5000 0.0000 -0.2500
vt 0.0000 0.5000 -0.2500
vt 0.5000 1.0000 -0.2500
vt 1.0000 0.5000 -0.2500
vt 0.0000 0.5000 0.2500
vt 0.5000 0.0000 0.2500
vt 1.0000 0.5000 0.2500
vt 0.5000 1.0000 0.2500
vt 0.0000 0.7500 0.0000
vt 0.1250 0.7500 0.0000
vt 0.1250 1.0000 0.0000
vt 0.2500 0.7500 0.0000
vt 0.2500 1.0000 0.0000
vt 0.3750 0.7500 0.0000
vt 0.3750 1.0000 0.0000
vt 0.5000 0.7500 0.0000
vt 0.5000 1.0000 0.0000
vt 0.6250 0.7500 0.0000
vt 0.6250 1.0000 0.0000
vt 0.7500 0.7500 0.0000
vt 0.7500 1.0000 0.0000
vt 0.8750 0.7500 0.0000
vt 0.8750 1.0000 0.0000
vt 1.0000 0.7500 0.0000
vt 0.1250 0.5000 0.0000
vt 0.2500 0.5000 0.0000
vt 0.3750 0.5000 0.0000
vt 0.5000 0.5000 0.0000
vt 0.6250 0.5000 0.0000
vt 0.7500 0.5000 0.0000
vt 0.8750 0.5000 0.0000
vt 0.1250 0.2500 0.0000
vt 0.0000 0.2500 0.0000
vt 0.2500 0.2500 0.0000
vt 0.3750 0.2500 0.0000
vt 0.5000 0.2500 0.0000
vt 0.6250 0.2500 0.0000
vt 0.7500 0.2500 0.0000
vt 0.8750 0.2500 0.0000
vt 1.0000 0.2500 0.0000
vt 0.1250 0.0000 0.0000
vt 0.2500 0.0000 0.0000
vt 0.3750 0.0000 0.0000
vt 0.6250 0.0000 0.0000
vt 0.7500 0.0000 0.0000
vt 0.8750 0.0000 0.0000
# 63 texture coords

g Box002
usemtl wire_135006006
s 2
f 1/1/1 2/2/1 3/3/1 
s 4
f 3/3/2 4/1/2 5/2/2 
s 16
f 3/4/3 2/5/3 4/1/3 
s 32
f 2/6/4 1/5/4 5/1/4 4/2/4 
s 64
f 1/6/5 3/7/5 5/2/5 
s 8
f 6/8/6 7/9/7 8/10/7 9/11/6 
f 7/12/7 10/13/4 11/14/8 8/15/7 
f 10/13/4 12/16/9 13/17/9 11/14/8 
f 12/16/9 6/8/6 9/11/6 13/17/9 
s 1
f 10/18/10 7/19/10 6/20/10 12/21/10 
f 8/22/11 11/23/11 13/24/11 9/25/11 
f 14/2/12 15/26/13 16/27/14 
f 14/28/12 16/27/14 17/29/15 
f 14/30/12 17/29/15 18/31/16 
f 14/32/12 18/31/16 19/33/17 
f 14/34/12 19/33/17 20/35/18 
f 14/36/12 20/35/18 21/37/19 
f 14/38/12 21/37/19 22/39/20 
f 14/40/12 22/39/20 15/41/13 
f 23/42/21 16/27/14 15/26/13 24/4/22 
f 25/43/23 17/29/15 16/27/14 23/42/21 
f 26/44/24 18/31/16 17/29/15 25/43/23 
f 27/45/9 19/33/17 18/31/16 26/44/24 
f 28/46/25 20/35/18 19/33/17 27/45/9 
f 29/47/6 21/37/19 20/35/18 28/46/25 
f 30/48/26 22/39/20 21/37/19 29/47/6 
f 24/7/22 15/41/13 22/39/20 30/48/26 
f 31/49/27 23/42/21 24/4/22 32/50/28 
f 33/51/29 25/43/23 23/42/21 31/49/27 
f 34/52/30 26/44/24 25/43/23 33/51/29 
f 35/53/31 27/45/9 26/44/24 34/52/30 
f 36/54/32 28/46/25 27/45/9 35/53/31 
f 37/55/33 29/47/6 28/46/25 36/54/32 
f 38/56/34 30/48/26 29/47/6 37/55/33 
f 32/57/28 24/7/22 30/48/26 38/56/34 
f 39/6/35 31/49/27 32/50/28 
f 39/58/35 33/51/29 31/49/27 
f 39/59/35 34/52/30 33/51/29 
f 39/60/35 35/53/31 34/52/30 
f 39/3/35 36/54/32 35/53/31 
f 39/61/35 37/55/33 36/54/32 
f 39/62/35 38/56/34 37/55/33 
f 39/63/35 32/57/28 38/56/34 
# 23 polygons - 20 triangles

