# 3ds Max Wavefront OBJ Exporter v0.97b - (c)2007 guruware
# File Created: 16.02.2016 19:23:12

mtllib Botella.mtl

#
# object 
#

v  -0.7041 11.6435 0.0000
v  -0.9189 11.4353 0.0000
v  -0.6227 11.4353 0.7151
v  -0.4708 11.6435 0.5632
v  -0.7407 11.1644 0.0000
v  -0.4967 11.1644 0.5891
v  -0.4238 11.1106 0.5162
v  -0.6376 11.1106 0.0000
v  -0.5876 9.6414 0.6800
v  -0.8692 9.6414 0.0000
v  -0.7640 9.3346 0.8564
v  -1.1187 9.3346 0.0000
v  -1.9199 7.8698 -0.0000
v  -1.3305 7.8698 1.4229
v  -2.0336 5.6786 -0.0000
v  -1.4109 5.6786 1.5034
v  -1.6779 2.5390 -0.0000
v  -1.1594 2.5390 1.2518
v  -2.1353 0.9076 -0.0000
v  -1.4828 0.9076 1.5752
v  -1.9626 0.1042 -0.0000
v  -1.3607 0.1042 1.4531
v  0.0924 11.4353 1.0114
v  0.0924 11.6435 0.7965
v  0.0924 11.2550 0.8331
v  0.0924 11.2012 0.7301
v  0.0924 9.6414 0.9617
v  0.0924 9.3346 1.2112
v  0.0924 7.8698 2.0123
v  0.0924 5.6786 2.1261
v  0.0924 2.5390 1.7703
v  0.0924 0.9076 2.2277
v  0.0924 0.1042 2.0550
v  0.8076 11.4353 0.7151
v  0.6557 11.6435 0.5632
v  0.6815 11.2550 0.5891
v  0.6087 11.2012 0.5162
v  0.7724 9.6414 0.6800
v  0.9489 9.3346 0.8564
v  1.5154 7.8698 1.4229
v  1.5958 5.6786 1.5034
v  1.3442 2.5390 1.2518
v  1.6677 0.9076 1.5752
v  1.5455 0.1042 1.4531
v  1.1038 11.4353 -0.0000
v  0.8890 11.6435 -0.0000
v  0.9255 11.1644 -0.0000
v  0.8225 11.1106 -0.0000
v  1.0541 9.6414 -0.0000
v  1.3036 9.3346 -0.0000
v  2.1048 7.8698 -0.0000
v  2.2185 5.6786 0.0000
v  1.8628 2.5390 0.0000
v  2.3202 0.9076 0.0000
v  2.1474 0.1042 0.0000
v  0.8076 11.4353 -0.7152
v  0.6557 11.6435 -0.5632
v  0.6815 11.1644 -0.5891
v  0.6087 11.1106 -0.5162
v  0.7724 9.6414 -0.6800
v  0.9489 9.3346 -0.8564
v  1.5154 7.8698 -1.4229
v  1.5958 5.6786 -1.5034
v  1.3442 2.5390 -1.2518
v  1.6677 0.9076 -1.5752
v  0.0924 11.4353 -1.0114
v  0.0924 11.6435 -0.7965
v  0.0924 11.1644 -0.8331
v  0.0924 11.1106 -0.7301
v  0.0924 9.6414 -0.9617
v  0.0924 9.3346 -1.2112
v  0.0924 7.8698 -2.0123
v  0.0924 5.6786 -2.1261
v  0.0924 2.5390 -1.7703
v  0.0924 0.9076 -2.2277
v  1.5455 0.1042 -1.4531
v  0.0924 0.1042 -2.0550
v  -0.6227 11.4353 -0.7151
v  -0.4708 11.6435 -0.5632
v  -0.4967 11.1644 -0.5891
v  -0.4238 11.1106 -0.5162
v  -0.5876 9.6414 -0.6800
v  -0.7640 9.3346 -0.8564
v  -1.3305 7.8698 -1.4229
v  -1.4109 5.6786 -1.5034
v  -1.1594 2.5390 -1.2518
v  -1.4828 0.9076 -1.5752
v  -1.3607 0.1042 -1.4531
v  -0.0725 11.7341 -0.3983
v  0.4907 11.7341 -0.1650
v  0.5180 0.1042 1.0275
v  -0.9351 0.1042 0.4256
v  -0.3058 11.7341 0.1650
v  0.2574 11.7341 0.3983
v  -0.3332 0.1042 -1.0275
v  1.1199 0.1042 -0.4256
# 96 vertices

vn -0.6959 0.7181 0.0000
vn -0.9954 0.0955 0.0000
vn -0.6937 0.0864 0.7151
vn -0.4921 0.7181 0.4921
vn -0.7019 -0.7123 0.0000
vn -0.4568 -0.7184 0.5246
vn -0.2793 -0.8847 0.3733
vn -0.4625 -0.8866 0.0000
vn -0.6985 0.1557 0.6985
vn -0.6913 0.1513 0.7065
vn -0.9878 0.1557 0.0000
vn -0.5917 0.5476 0.5917
vn -0.5486 0.6309 0.5486
vn -0.7758 0.6309 0.0000
vn -0.8367 0.5476 0.0000
vn -0.9658 0.2594 0.0000
vn -0.6829 0.2594 0.6829
vn -0.9996 -0.0299 -0.0000
vn -0.7068 -0.0299 0.7068
vn -0.9964 0.0842 -0.0000
vn -0.7046 0.0842 0.7046
vn -0.9996 0.0291 -0.0000
vn -0.7068 0.0291 0.7068
vn -0.9777 -0.2102 -0.0000
vn -0.6913 -0.2102 0.6913
vn 0.0000 0.0092 1.0000
vn 0.0000 0.7181 0.6959
vn 0.0242 -0.7738 0.6330
vn 0.0636 -0.8828 0.4654
vn -0.0024 0.1503 0.9886
vn 0.0108 0.1469 0.9891
vn 0.0000 0.5476 0.8367
vn 0.0000 0.6309 0.7758
vn 0.0000 0.2594 0.9658
vn -0.0000 -0.0299 0.9996
vn -0.0000 0.0842 0.9964
vn -0.0000 0.0291 0.9996
vn -0.0000 -0.2102 0.9777
vn 0.6937 0.0214 0.7200
vn 0.4921 0.7181 0.4921
vn 0.3993 -0.7809 0.4803
vn 0.2735 -0.8842 0.3787
vn 0.6994 0.1469 0.6994
vn 0.6894 0.1507 0.7085
vn 0.5917 0.5476 0.5917
vn 0.5486 0.6309 0.5486
vn 0.6829 0.2594 0.6829
vn 0.7068 -0.0299 0.7068
vn 0.7046 0.0842 0.7046
vn 0.7068 0.0291 0.7068
vn 0.6913 -0.2102 0.6913
vn 0.9954 0.0955 -0.0000
vn 0.6959 0.7181 -0.0000
vn 0.6880 -0.7252 0.0269
vn 0.4576 -0.8873 0.0577
vn 0.9883 0.1523 -0.0024
vn 0.9878 0.1557 0.0066
vn 0.8367 0.5476 -0.0000
vn 0.7758 0.6309 -0.0000
vn 0.9658 0.2594 -0.0000
vn 0.9996 -0.0299 0.0000
vn 0.9964 0.0842 0.0000
vn 0.9996 0.0291 0.0000
vn 0.9777 -0.2102 0.0000
vn 0.7039 0.0955 -0.7039
vn 0.4921 0.7181 -0.4921
vn 0.4963 -0.7123 -0.4963
vn 0.3270 -0.8866 -0.3270
vn 0.6985 0.1557 -0.6985
vn 0.5917 0.5476 -0.5917
vn 0.5486 0.6309 -0.5486
vn 0.6829 0.2594 -0.6829
vn 0.7068 -0.0299 -0.7068
vn 0.7046 0.0842 -0.7046
vn 0.7068 0.0291 -0.7068
vn -0.0000 0.0955 -0.9954
vn -0.0000 0.7181 -0.6959
vn -0.0000 -0.7123 -0.7019
vn -0.0000 -0.8866 -0.4625
vn -0.0000 0.1557 -0.9878
vn -0.0000 0.5476 -0.8367
vn -0.0000 0.6309 -0.7758
vn -0.0000 0.2594 -0.9658
vn 0.0000 -0.0299 -0.9996
vn 0.0000 0.0842 -0.9964
vn 0.0000 0.0291 -0.9996
vn 0.6913 -0.2102 -0.6913
vn 0.0000 -0.2102 -0.9777
vn -0.7039 0.0955 -0.7039
vn -0.4921 0.7181 -0.4921
vn -0.4963 -0.7123 -0.4963
vn -0.3270 -0.8866 -0.3270
vn -0.6985 0.1557 -0.6985
vn -0.5917 0.5476 -0.5917
vn -0.5486 0.6309 -0.5486
vn -0.6829 0.2594 -0.6829
vn -0.7068 -0.0299 -0.7068
vn -0.7046 0.0842 -0.7046
vn -0.7068 0.0291 -0.7068
vn -0.6913 -0.2102 -0.6913
vn 0.0151 0.9763 -0.2158
vn -0.1633 0.9763 -0.1419
vn -0.0553 0.9895 -0.1335
vn 0.0396 0.9946 -0.0955
vn 0.0787 0.9786 -0.1900
vn 0.2158 0.9763 0.0151
vn 0.2632 0.9586 -0.1090
vn 0.2272 0.9737 -0.0139
vn 0.0000 -1.0000 -0.0000
vn -0.2158 0.9763 -0.0151
vn -0.1335 0.9895 0.0553
vn -0.0396 0.9946 0.0955
vn 0.1508 0.9737 0.1705
vn 0.1633 0.9763 0.1419
vn -0.1419 0.9763 0.1633
vn -0.0787 0.9786 0.1900
vn 0.1090 0.9586 0.2632
# 117 vertex normals

g 
usemtl wire_001025001
s 4
f 1//1 2//2 3//3 4//4 
f 2//2 5//5 6//6 3//3 
f 7//7 6//6 5//5 8//8 
s 2
f 9//9 7//10 8//11 10//11 
s 4
f 11//12 9//13 10//14 12//15 
f 12//15 13//16 14//17 11//12 
f 13//16 15//18 16//19 14//17 
s 6
f 17//20 18//21 16//19 15//18 
s 2
f 19//22 20//23 18//21 17//20 
f 19//22 21//24 22//25 20//23 
s 4
f 4//4 3//3 23//26 24//27 
f 3//3 6//6 25//28 23//26 
f 26//29 25//28 6//6 7//7 
s 2
f 27//30 26//31 7//10 9//9 
s 4
f 28//32 27//33 9//13 11//12 
f 11//12 14//17 29//34 28//32 
f 14//17 16//19 30//35 29//34 
s 6
f 16//19 18//21 31//36 30//35 
s 2
f 18//21 20//23 32//37 31//36 
f 20//23 22//25 33//38 32//37 
s 4
f 24//27 23//26 34//39 35//40 
f 23//26 25//28 36//41 34//39 
f 37//42 36//41 25//28 26//29 
s 2
f 38//43 37//44 26//31 27//30 
s 4
f 39//45 38//46 27//33 28//32 
f 28//32 29//34 40//47 39//45 
f 29//34 30//35 41//48 40//47 
s 6
f 30//35 31//36 42//49 41//48 
s 2
f 31//36 32//37 43//50 42//49 
f 32//37 33//38 44//51 43//50 
s 4
f 35//40 34//39 45//52 46//53 
f 34//39 36//41 47//54 45//52 
f 48//55 47//54 36//41 37//42 
s 2
f 49//56 48//57 37//44 38//43 
s 4
f 50//58 49//59 38//46 39//45 
f 39//45 40//47 51//60 50//58 
f 40//47 41//48 52//61 51//60 
s 6
f 41//48 42//49 53//62 52//61 
s 2
f 42//49 43//50 54//63 53//62 
f 44//51 55//64 54//63 43//50 
s 4
f 46//53 45//52 56//65 57//66 
f 45//52 47//54 58//67 56//65 
f 59//68 58//67 47//54 48//55 
s 2
f 60//69 59//69 48//57 49//56 
s 4
f 61//70 60//71 49//59 50//58 
f 50//58 51//60 62//72 61//70 
f 51//60 52//61 63//73 62//72 
s 6
f 52//61 53//62 64//74 63//73 
s 2
f 53//62 54//63 65//75 64//74 
s 4
f 57//66 56//65 66//76 67//77 
f 56//65 58//67 68//78 66//76 
f 69//79 68//78 58//67 59//68 
s 2
f 70//80 69//80 59//69 60//69 
s 4
f 71//81 70//82 60//71 61//70 
f 61//70 62//72 72//83 71//81 
f 62//72 63//73 73//84 72//83 
s 6
f 63//73 64//74 74//85 73//84 
s 2
f 64//74 65//75 75//86 74//85 
f 65//75 76//87 77//88 75//86 
s 4
f 67//77 66//76 78//89 79//90 
f 66//76 68//78 80//91 78//89 
f 81//92 80//91 68//78 69//79 
s 2
f 82//93 81//93 69//80 70//80 
s 4
f 83//94 82//95 70//82 71//81 
f 71//81 72//83 84//96 83//94 
f 72//83 73//84 85//97 84//96 
s 6
f 73//84 74//85 86//98 85//97 
s 2
f 74//85 75//86 87//99 86//98 
f 75//86 77//88 88//100 87//99 
s 4
f 79//90 78//89 2//2 1//1 
f 78//89 80//91 5//5 2//2 
f 8//8 5//5 80//91 81//92 
s 2
f 10//11 8//11 81//93 82//93 
s 4
f 12//15 10//14 82//95 83//94 
f 83//94 84//96 13//16 12//15 
f 84//96 85//97 15//18 13//16 
s 6
f 85//97 86//98 17//20 15//18 
s 2
f 86//98 87//99 19//22 17//20 
f 87//99 88//100 21//24 19//22 
f 76//87 65//75 54//63 55//64 
s 1
f 67//101 79//102 89//103 
f 67//101 89//103 90//104 57//105 
s 2
f 46//106 57//107 90//108 
s 1
f 44//109 33//109 91//109 
f 33//109 22//109 92//109 91//109 
s 4
f 92//109 22//109 21//109 
s 1
f 1//110 93//111 89//103 79//102 
f 93//111 94//112 90//104 89//103 
s 2
f 90//108 94//113 35//114 46//106 
s 1
f 1//110 4//115 93//111 
f 4//115 24//116 94//112 93//111 
s 2
f 94//113 24//117 35//114 
s 4
f 88//109 77//109 95//109 
s 1
f 77//109 76//109 96//109 95//109 
f 96//109 76//109 55//109 
s 4
f 95//109 92//109 21//109 88//109 
s 1
f 95//109 96//109 91//109 92//109 
f 96//109 55//109 44//109 91//109 
# 90 polygons - 8 triangles

