# 3ds Max Wavefront OBJ Exporter v0.97b - (c)2007 guruware
# File Created: 03.02.2016 16:45:56

mtllib Arbusto_sin_nieve.mtl

#
# object Object003
#

v  -5.0096 27.2362 -0.0932
v  -0.0572 27.5556 -1.5345
v  -2.3793 27.3069 3.8275
v  2.8248 32.0664 -1.3227
v  0.0921 31.6199 -5.1745
v  -8.3423 28.7823 3.4232
v  -9.6287 29.8219 -1.4378
v  -4.4128 28.7910 -4.4670
v  2.8368 37.4263 -3.1689
v  -1.2528 31.6552 8.0429
v  2.1619 30.2075 3.0913
v  1.5956 36.1450 7.2014
v  -10.2508 33.4924 5.5846
v  -5.7257 31.4594 7.7186
v  -8.0993 37.5784 8.2703
v  -12.5426 34.3297 -3.4659
v  -12.7546 33.4816 0.6878
v  -13.7631 37.6996 -2.3479
v  -4.2992 33.1465 -6.9154
v  -9.1625 32.9498 -5.6457
v  -7.1607 37.2498 -7.4976
v  4.3575 36.7926 1.5726
v  -3.3148 36.8906 10.1474
v  -12.7126 37.7248 2.7724
v  -11.9416 37.5029 -5.4634
v  -1.9763 37.4820 -6.4172
v  2.1441 42.2516 5.1918
v  3.0557 42.5609 -0.2813
v  -1.4836 46.3618 4.4590
v  -5.9251 41.1965 8.7762
v  -2.1329 42.4296 8.4604
v  -6.7293 45.5591 6.2300
v  -13.1077 40.9071 0.5066
v  -10.2874 42.1622 5.7108
v  -10.3461 45.6785 1.6864
v  -9.4778 40.9884 -5.8594
v  -12.3123 41.4765 -3.1545
v  -8.1199 45.6421 -2.3445
v  -0.0171 41.9779 -3.4865
v  -5.0880 42.6289 -5.2326
v  -2.4560 46.2240 -0.7579
v  -5.9887 47.7924 1.7760
v  17.4415 35.0922 -5.9752
v  20.7964 34.5994 -7.3153
v  18.7778 35.4300 -2.7182
v  23.4975 37.3235 -7.8880
v  21.6808 37.2925 -11.5912
v  14.5046 36.4794 -2.9256
v  14.2484 38.0118 -7.0664
v  18.1381 36.2429 -10.2979
v  24.1589 41.5905 -10.2769
v  20.6141 38.7827 -0.1035
v  22.3539 38.0028 -3.7261
v  22.9711 41.9948 -0.5411
v  11.9650 39.3466 -1.1246
v  16.3912 38.9910 0.2605
v  13.8806 42.2145 -0.0085
v  10.4943 40.1239 -8.4528
v  10.0431 39.0360 -4.3551
v  7.9382 42.0615 -6.9778
v  18.2943 38.6140 -13.6726
v  14.2230 39.1654 -11.9629
v  15.7020 41.8566 -14.8985
v  24.3543 40.5623 -5.2385
v  18.7966 42.1016 1.4129
v  10.3193 40.9936 -2.5594
v  10.5875 42.1943 -11.7163
v  21.3222 42.6987 -13.8531
v  23.1929 44.0401 -3.8942
v  24.1655 45.2529 -8.7527
v  20.1590 48.6777 -6.2473
v  17.1988 50.9445 -2.8276
v  13.4135 51.8913 -10.7136
v  13.9094 54.1933 -3.5055
v  12.8966 44.3219 -13.8704
v  9.1717 44.5853 -11.2071
v  14.4829 47.3857 -13.9755
v  23.3187 46.3991 -12.0666
v  18.6069 46.3092 -13.7402
v  20.5901 50.1127 -10.4773
v  15.3219 45.2732 0.3345
v  10.0985 43.4726 -2.7755
v  7.0648 44.0089 -8.2836
v  19.8899 45.4643 -1.6419
v  8.1959 44.8319 -2.4855
v  8.5088 47.4292 -11.5059
v  8.0786 49.5834 -11.8411
v  10.9006 54.7726 -9.2732
v  4.4510 42.9144 -3.7508
v  5.3166 44.7658 -8.6635
v  5.7311 44.3101 -0.8137
v  5.1566 49.7275 -11.2374
v  1.1049 44.3828 -0.9976
v  0.2576 45.2788 -5.8025
v  3.3259 45.0612 -7.6260
v  7.2365 49.1169 2.2683
v  10.2401 49.7219 0.9669
v  -1.9046 49.8272 2.0397
v  2.9870 48.9413 2.8205
v  0.3317 53.2867 3.2578
v  -2.6109 49.2343 -7.5117
v  -3.7023 48.8733 -2.2283
v  -3.9567 52.3064 -5.9070
v  2.9167 49.7487 -12.1640
v  0.5998 48.7543 -9.8999
v  2.4413 53.0200 -11.7583
v  4.9238 53.0285 4.1204
v  -2.8461 53.0466 0.2403
v  -1.9927 52.8409 -9.7727
v  6.8312 53.0949 -10.5004
v  8.9670 56.1907 -0.5304
v  9.3268 56.7727 -4.5885
v  5.3756 59.1204 -0.6497
v  2.1498 56.6210 3.4933
v  5.6857 56.9293 2.8041
v  1.9328 59.5655 1.0014
v  -2.5136 56.2800 -0.9623
v  -1.0022 57.3029 1.6424
v  -0.4960 59.7656 -2.1804
v  0.4205 56.6404 -10.2141
v  -2.0976 57.0395 -6.4219
v  1.1293 59.5432 -6.9423
v  8.3457 56.3685 -8.6175
v  4.4844 57.0787 -10.2284
v  4.5325 58.7669 -4.8667
v  11.8874 49.8173 -0.0342
v  2.1637 60.4723 -2.7008
v  0.8765 13.1657 -5.6550
v  -0.7496 13.2359 -4.9847
v  2.3713 26.7080 -5.3426
v  3.6962 26.7080 -5.8914
v  4.9721 26.2132 -5.2962
v  2.4783 12.8271 -4.9503
v  3.1614 12.9058 -3.3248
v  5.5344 26.3502 -3.9842
v  2.5142 13.2298 -1.7199
v  5.0204 26.7008 -2.6921
v  0.9115 13.5614 -1.0717
v  3.7311 27.0596 -2.1770
v  2.2148 26.5361 -2.6638
v  -0.7446 13.5474 -1.7437
v  4.0156 40.2932 -6.9953
v  4.4218 40.2932 -7.9760
v  3.9877 37.8236 -7.4644
v  3.5445 37.8344 -6.4460
v  -1.4194 13.3081 -3.3585
v  1.8226 26.7080 -4.0177
v  0.0407 0.0477 -0.1874
v  -1.8242 0.0477 -0.9598
v  -2.5966 0.0477 -2.8247
v  2.6780 0.0477 -2.8247
v  -1.8242 0.0477 -4.6895
v  0.0407 0.0477 -5.4620
v  1.9055 0.0477 -4.6895
v  1.9055 0.0477 -0.9598
v  3.7423 51.3342 -6.1531
v  3.6011 51.1861 -5.7604
v  4.0270 38.4013 -5.5164
v  4.4748 40.7876 -6.1166
v  5.4283 40.6554 -5.6692
v  5.0344 38.1754 -5.0349
v  6.3726 40.3048 -6.0042
v  6.0662 37.8312 -5.3693
v  9.7940 39.4202 -5.6246
v  6.4730 37.4822 -6.3603
v  10.0494 38.9811 -6.2290
v  9.8865 38.9813 -7.0170
v  6.0397 37.3291 -7.3914
v  6.3503 39.7773 -7.8932
v  5.0312 37.8236 -7.8967
v  5.4025 40.2932 -8.3822
v  4.5807 51.3257 -5.3553
v  4.7220 51.4739 -5.7481
v  4.5349 51.5377 -6.1444
v  3.7881 51.1222 -5.3640
v  4.1291 51.4799 -6.3122
v  4.1939 51.1801 -5.1963
v  6.6060 40.7836 -6.8394
v  1.9082 29.2923 -4.5378
v  2.4796 29.2442 -5.6873
v  -3.0270 32.5652 -0.8360
v  -2.5637 33.1967 -0.2184
v  2.4713 30.1111 -3.4314
v  -1.8587 32.6852 0.3191
v  3.6660 29.5597 -2.8315
v  5.0019 29.2380 -3.1638
v  5.4949 28.9403 -4.3974
v  4.9609 28.8240 -5.6480
v  3.7410 29.2442 -6.2099
v  -7.3386 39.6435 2.8685
v  -7.1046 39.8353 3.1078
v  -7.0024 39.6040 3.3952
v  -1.8940 31.2805 0.7337
v  -3.1330 31.1327 -0.4864
v  -2.8016 30.7773 0.3968
v  -7.7082 39.2815 3.1288
v  -7.7432 39.2769 3.5127
v  -7.3382 39.2443 3.6960
v  14.9976 42.7239 -5.8466
v  15.1603 42.6545 -6.1235
v  15.0827 42.4420 -6.4106
v  9.8719 40.3484 -7.3555
v  9.7792 40.7931 -6.0095
v  9.9692 41.1286 -6.7253
v  14.7197 43.2735 -6.1393
v  14.7818 43.3477 -6.4475
v  14.8073 42.9939 -6.6784
# 207 vertices

vn 0.0582 -0.9981 -0.0211
vn 0.7497 -0.4565 -0.4790
vn -0.2478 -0.9513 0.1834
vn -0.4736 -0.8785 -0.0626
vn -0.3756 -0.8559 -0.3555
vn 0.8108 -0.1923 -0.5529
vn 0.7221 -0.3458 0.5991
vn -0.5074 -0.2706 0.8181
vn -0.9456 -0.3058 -0.1107
vn -0.2305 -0.2924 -0.9281
vn 0.9419 -0.1113 -0.3169
vn 0.4916 -0.1511 0.8576
vn -0.7662 -0.0188 0.6424
vn -0.8579 -0.1474 -0.4923
vn 0.2039 0.0033 -0.9790
vn 0.7260 0.6691 0.1587
vn -0.0872 0.4901 0.8673
vn -0.8431 0.3988 0.3607
vn -0.4882 0.6122 -0.6220
vn 0.3230 0.6359 -0.7009
vn 0.5119 -0.6626 0.5467
vn 0.5502 -0.8105 0.2007
vn 0.8407 -0.5326 -0.0980
vn 0.1707 -0.4862 -0.8570
vn 0.2933 -0.6438 -0.7068
vn -0.0381 -0.9399 -0.3393
vn -0.5442 -0.5219 0.6568
vn -0.2289 -0.7574 0.6115
vn -0.0219 -0.6930 0.7206
vn -0.7946 -0.5857 -0.1601
vn -0.7435 -0.6665 0.0542
vn -0.7731 -0.4952 0.3964
vn -0.2041 -0.4757 -0.8556
vn -0.4618 -0.6866 -0.5615
vn -0.5889 -0.6160 -0.5232
vn 0.5389 0.2825 -0.7936
vn 0.5594 0.0217 -0.8286
vn 0.3442 -0.0769 -0.9357
vn 0.8927 0.0665 0.4457
vn 0.8884 -0.2010 0.4128
vn 0.9493 -0.3141 0.0103
vn -0.3537 0.0823 0.9317
vn -0.3839 -0.2296 0.8944
vn -0.0497 -0.3893 0.9198
vn -0.9794 0.0214 0.2008
vn -0.9756 -0.0889 0.2006
vn -0.8703 -0.2102 0.4454
vn -0.3788 0.1643 -0.9108
vn -0.3924 -0.2036 -0.8970
vn -0.6038 -0.3396 -0.7212
vn 0.9474 0.2694 0.1730
vn 0.9498 0.1217 -0.2883
vn 0.6418 0.3550 -0.6798
vn -0.0162 0.2945 0.9555
vn 0.5251 0.1435 0.8389
vn 0.6001 0.2009 0.7743
vn -0.8811 0.1968 0.4300
vn -0.7661 -0.0069 0.6427
vn -0.5320 0.2048 0.8216
vn -0.6133 0.3533 -0.7064
vn -0.8373 0.2142 -0.5031
vn -0.9331 0.3260 -0.1520
vn 0.3438 0.4031 -0.8481
vn 0.1793 0.3223 -0.9295
vn -0.0156 0.3931 -0.9193
vn 0.3496 0.9326 -0.0898
vn 0.5566 0.8212 -0.1254
vn 0.4841 0.6526 -0.5828
vn 0.0154 0.8928 0.4502
vn 0.1317 0.6963 0.7056
vn 0.5144 0.5685 0.6421
vn -0.4144 0.8393 0.3519
vn -0.6296 0.5805 0.5164
vn -0.4754 0.3764 0.7952
vn -0.4197 0.8754 -0.2397
vn -0.6249 0.6972 -0.3514
vn -0.8494 0.5174 -0.1041
vn 0.0445 0.8760 -0.4802
vn 0.1088 0.7427 -0.6607
vn -0.1213 0.6205 -0.7747
vn -0.0893 -0.9863 0.1390
vn 0.6420 -0.7016 -0.3091
vn -0.2428 -0.9496 0.1981
vn -0.6084 -0.7558 -0.2421
vn -0.5878 -0.7532 -0.2952
vn 0.8392 -0.3589 -0.4087
vn 0.7441 -0.4832 0.4614
vn -0.3065 -0.1604 0.9383
vn -0.6738 -0.6924 -0.2580
vn -0.3813 -0.5777 -0.7217
vn 0.9777 -0.1951 -0.0777
vn 0.4131 -0.1816 0.8924
vn -0.6005 0.0920 0.7943
vn -0.6891 -0.6029 -0.4022
vn 0.2077 -0.1963 -0.9583
vn 0.7213 0.6242 0.3002
vn 0.7052 0.6599 -0.2593
vn -0.5499 0.2574 -0.7946
vn 0.2724 0.5407 -0.7959
vn 0.6036 -0.6689 0.4339
vn 0.6075 -0.6910 0.3916
vn 0.7083 -0.6395 0.2990
vn 0.0331 -0.8185 -0.5736
vn 0.0610 -0.8502 -0.5229
vn -0.2503 -0.9248 -0.2865
vn -0.2698 -0.6721 0.6896
vn -0.2061 -0.7054 0.6781
vn 0.0362 -0.6268 0.7783
vn -0.3918 -0.8776 -0.2761
vn -0.4018 -0.8666 -0.2958
vn -0.5488 -0.7356 0.3972
vn -0.3352 -0.7635 -0.5520
vn -0.5336 -0.8238 -0.1913
vn -0.4210 -0.8834 -0.2059
vn 0.7633 -0.1040 -0.6377
vn 0.7291 -0.2224 -0.6473
vn 0.3966 -0.3318 -0.8559
vn 0.9492 0.2369 0.2073
vn 0.8251 -0.4248 0.3725
vn 0.8294 -0.4684 0.3044
vn -0.2772 0.0229 0.9605
vn -0.2781 -0.1372 0.9507
vn 0.0602 -0.3874 0.9200
vn -0.8765 -0.0742 0.4756
vn -0.8758 -0.2533 0.4108
vn -0.7897 -0.3505 0.5035
vn -0.5228 -0.2558 -0.8131
vn -0.4772 -0.5147 -0.7123
vn -0.5911 -0.6733 -0.4441
vn 0.9442 0.2209 0.2442
vn 0.9993 0.0132 -0.0361
vn 0.9720 0.0888 -0.2177
vn 0.3011 0.5857 0.7525
vn 0.3632 0.5590 0.7454
vn 0.5935 0.6690 0.4473
vn -0.8835 -0.0380 0.4669
vn -0.5864 0.0184 0.8098
vn -0.5460 0.1651 0.8214
vn -0.5808 -0.1746 -0.7951
vn -0.8036 -0.3779 -0.4599
vn -0.5752 -0.6176 -0.5363
vn 0.3180 0.2676 -0.9096
vn 0.1590 0.1501 -0.9758
vn -0.0832 0.3014 -0.9499
vn 0.2164 0.9176 0.3333
vn 0.7199 0.6317 0.2876
vn 0.8057 0.5924 -0.0010
vn -0.2763 -0.5544 0.7851
vn 0.3574 0.3618 0.8610
vn 0.6024 0.6377 0.4801
vn 0.0892 0.2630 -0.9607
vn 0.4982 0.8563 -0.1363
vn -0.3273 0.5019 -0.8006
vn -0.3767 -0.1832 -0.9080
vn -0.7642 -0.2410 -0.5983
vn 0.1754 0.6043 -0.7772
vn 0.1960 0.5776 -0.7924
vn 0.0423 -0.0561 -0.9975
vn 0.8098 -0.5817 -0.0765
vn -0.2016 -0.4562 -0.8668
vn -0.0316 -0.8973 0.4402
vn -0.4578 -0.8851 -0.0843
vn -0.2967 -0.8693 -0.3954
vn -0.1510 0.5032 -0.8509
vn 0.4114 -0.6342 0.6547
vn -0.1916 -0.2135 0.9580
vn -0.9310 -0.2968 -0.2126
vn -0.6962 -0.0122 -0.7178
vn 0.4207 -0.1729 0.8906
vn -0.6832 0.1937 0.7041
vn -0.8747 -0.1409 -0.4638
vn 0.2696 0.1570 -0.9501
vn 0.6202 0.7669 0.1650
vn 0.0911 0.6472 0.7568
vn -0.7984 0.5488 0.2478
vn -0.5892 0.6635 -0.4611
vn 0.2888 0.9125 -0.2899
vn 0.5411 -0.5674 0.6207
vn 0.1637 -0.9843 -0.0658
vn 0.2839 -0.6540 -0.7012
vn -0.4678 -0.4189 -0.7783
vn -0.3278 -0.8635 -0.3832
vn -0.2290 -0.5677 0.7907
vn -0.0407 -0.6316 0.7742
vn 0.1293 -0.5636 0.8159
vn -0.7508 -0.6301 -0.1981
vn -0.6803 -0.7328 -0.0167
vn -0.6746 -0.6071 0.4198
vn -0.3551 -0.6660 -0.6560
vn -0.4104 -0.6782 -0.6096
vn -0.5227 -0.6281 -0.5764
vn 0.0699 0.4729 -0.8784
vn 0.2560 0.0835 -0.9631
vn 0.3823 0.0121 -0.9240
vn 0.5769 0.2903 0.7635
vn 0.4548 0.4149 0.7880
vn -0.1829 0.0303 0.9827
vn -0.1919 -0.2137 0.9579
vn 0.1349 -0.3578 0.9240
vn -0.9748 0.1586 0.1570
vn -0.9809 0.1038 0.1647
vn -0.9168 -0.0465 0.3965
vn -0.4090 0.1553 -0.8992
vn -0.3912 -0.2204 -0.8935
vn -0.5918 -0.3529 -0.7247
vn 0.4537 0.8756 0.1658
vn 0.5148 0.8372 -0.1845
vn 0.4808 0.8531 -0.2027
vn 0.1590 0.2877 0.9444
vn 0.5748 0.1586 0.8028
vn 0.7137 0.2882 0.6384
vn -0.8773 0.2439 0.4133
vn -0.6897 0.0611 0.7215
vn -0.4655 0.1928 0.8638
vn -0.7402 0.4080 -0.5344
vn -0.8672 0.2972 -0.3995
vn -0.9313 0.3636 -0.0204
vn 0.4139 0.3024 -0.8586
vn 0.2652 0.2203 -0.9387
vn -0.0433 0.3714 -0.9275
vn 0.4711 0.8662 -0.1668
vn 0.3871 0.9092 -0.1536
vn 0.3866 0.9036 -0.1848
vn 0.2390 0.9396 0.2450
vn 0.3361 0.8086 0.4829
vn 0.5705 0.7157 0.4029
vn -0.2100 0.9526 0.2202
vn -0.4930 0.7597 0.4241
vn -0.3032 0.6025 0.7383
vn -0.2797 0.9498 -0.1398
vn -0.6186 0.7462 -0.2460
vn -0.8649 0.5020 0.0039
vn 0.3749 0.8823 -0.2847
vn 0.3734 0.8839 -0.2816
vn -0.0837 0.7543 -0.6511
vn 0.3756 0.3534 0.8568
vn 0.6545 0.7060 -0.2705
vn -0.5352 -0.8043 0.2581
vn 0.7968 0.4727 0.3764
vn 0.3206 0.4933 0.8086
vn -0.5312 -0.2328 -0.8147
vn -0.1204 -0.6533 -0.7474
vn -0.4193 -0.8964 0.1437
vn -0.3510 -0.1909 0.9167
vn 0.4282 -0.6338 0.6442
vn -0.3798 0.0632 -0.9229
vn 0.3865 -0.0961 -0.9173
vn 0.9104 -0.1791 -0.3729
vn 0.9073 -0.1404 0.3964
vn 0.3728 -0.0021 0.9279
vn -0.3615 0.1492 0.9204
vn -0.9169 0.0844 -0.3900
vn -0.9039 0.1997 -0.3781
vn -0.9165 0.2348 0.3240
vn 0.0000 -1.0000 -0.0000
vn -0.3817 0.0106 -0.9242
vn 0.3887 -0.0373 -0.9206
vn 0.9222 -0.0494 -0.3835
vn 0.9247 -0.0204 0.3802
vn 0.3818 0.0357 0.9236
vn -0.3785 0.0842 0.9218
vn -0.9217 0.0665 -0.3821
vn -0.9214 0.0962 0.3766
vn -0.9291 0.0052 -0.3698
vn -0.9111 0.2505 0.3274
vn -0.3666 0.2878 0.8847
vn 0.3720 0.1807 0.9105
vn 0.3387 -0.7802 0.5259
vn 0.3932 -0.9180 -0.0516
vn 0.3437 -0.2304 -0.9104
vn -0.3798 -0.1232 -0.9168
vn -0.2425 0.9333 0.2648
vn -0.2426 0.9333 0.2648
vn -0.8758 -0.0898 0.4743
vn -0.4148 -0.0914 0.9053
vn 0.3480 0.0001 0.9375
vn 0.9281 0.1292 0.3491
vn 0.8941 0.1981 -0.4017
vn 0.4828 0.2066 -0.8510
vn -0.3904 0.1254 -0.9121
vn -0.9107 -0.0351 -0.4116
vn 0.0291 0.7563 -0.6536
vn 0.4976 0.8672 -0.0207
vn 0.3492 0.2100 0.9132
vn 0.9327 0.0716 0.3535
vn 0.9200 -0.0482 -0.3889
vn 0.3804 -0.1219 -0.9168
vn -0.3804 -0.1086 -0.9184
vn 0.2735 0.5726 -0.7728
vn 0.7588 0.6263 -0.1784
vn 0.5739 0.2203 0.7887
vn -0.6497 -0.1311 -0.7488
vn -0.6449 -0.7638 0.0286
vn -0.0215 -0.5943 0.8040
vn -0.6762 0.7367 -0.0055
vn -0.2200 0.7304 0.6466
vn 0.6518 0.1632 0.7406
vn -0.6939 -0.0600 -0.7176
vn -0.8571 -0.5122 0.0549
vn -0.1887 -0.4427 0.8766
vn -0.9024 0.0744 -0.4243
vn -0.9200 0.2467 0.3045
vn -0.3391 0.2860 0.8962
vn 0.3159 0.1933 0.9289
vn 0.9251 -0.0180 0.3794
vn 0.9119 -0.1892 -0.3642
vn 0.3418 -0.2303 -0.9111
vn 0.4541 -0.6614 0.5970
vn 0.5671 -0.8229 0.0357
vn 0.1863 -0.2251 -0.9564
vn -0.0401 0.2589 0.9651
vn -0.1168 0.8921 0.4365
vn -0.0229 0.6882 -0.7252
vn 0.7731 0.5580 0.3016
vn 0.8785 0.2760 -0.3900
vn 0.2700 -0.2527 -0.9291
vn -0.1438 0.3094 0.9400
vn -0.4239 0.8721 0.2445
vn -0.2233 0.5985 -0.7694
# 319 vertex normals

g Object003
usemtl Norm_Leaves
s off
f 1//1 2//1 3//1 
f 4//2 2//2 5//2 
f 1//3 3//3 6//3 
f 1//4 6//4 7//4 
f 1//5 7//5 8//5 
f 4//6 5//6 9//6 
f 10//7 11//7 12//7 
f 13//8 14//8 15//8 
f 16//9 17//9 18//9 
f 19//10 20//10 21//10 
f 4//11 9//11 22//11 
f 10//12 12//12 23//12 
f 13//13 15//13 24//13 
f 16//14 18//14 25//14 
f 19//15 21//15 26//15 
f 27//16 28//16 29//16 
f 30//17 31//17 32//17 
f 33//18 34//18 35//18 
f 36//19 37//19 38//19 
f 39//20 40//20 41//20 
f 3//21 11//21 10//21 
f 3//22 2//22 11//22 
f 2//23 4//23 11//23 
f 5//24 8//24 19//24 
f 5//25 2//25 8//25 
f 2//26 1//26 8//26 
f 6//27 14//27 13//27 
f 6//28 3//28 14//28 
f 3//29 10//29 14//29 
f 7//30 17//30 16//30 
f 7//31 6//31 17//31 
f 6//32 13//32 17//32 
f 8//33 20//33 19//33 
f 8//34 7//34 20//34 
f 7//35 16//35 20//35 
f 9//36 26//36 39//36 
f 9//37 5//37 26//37 
f 5//38 19//38 26//38 
f 12//39 22//39 27//39 
f 12//40 11//40 22//40 
f 11//41 4//41 22//41 
f 15//42 23//42 30//42 
f 15//43 14//43 23//43 
f 14//44 10//44 23//44 
f 18//45 24//45 33//45 
f 18//46 17//46 24//46 
f 17//47 13//47 24//47 
f 21//48 25//48 36//48 
f 21//49 20//49 25//49 
f 20//50 16//50 25//50 
f 22//51 28//51 27//51 
f 22//52 9//52 28//52 
f 9//53 39//53 28//53 
f 23//54 31//54 30//54 
f 23//55 12//55 31//55 
f 12//56 27//56 31//56 
f 24//57 34//57 33//57 
f 24//58 15//58 34//58 
f 15//59 30//59 34//59 
f 25//60 37//60 36//60 
f 25//61 18//61 37//61 
f 18//62 33//62 37//62 
f 26//63 40//63 39//63 
f 26//64 21//64 40//64 
f 21//65 36//65 40//65 
f 29//66 41//66 42//66 
f 29//67 28//67 41//67 
f 28//68 39//68 41//68 
f 32//69 29//69 42//69 
f 32//70 31//70 29//70 
f 31//71 27//71 29//71 
f 35//72 32//72 42//72 
f 35//73 34//73 32//73 
f 34//74 30//74 32//74 
f 38//75 35//75 42//75 
f 38//76 37//76 35//76 
f 37//77 33//77 35//77 
f 41//78 38//78 42//78 
f 41//79 40//79 38//79 
f 40//80 36//80 38//80 
f 43//81 44//81 45//81 
f 46//82 44//82 47//82 
f 43//83 45//83 48//83 
f 43//84 48//84 49//84 
f 43//85 49//85 50//85 
f 46//86 47//86 51//86 
f 52//87 53//87 54//87 
f 55//88 56//88 57//88 
f 58//89 59//89 60//89 
f 61//90 62//90 63//90 
f 46//91 51//91 64//91 
f 52//92 54//92 65//92 
f 55//93 57//93 66//93 
f 58//94 60//94 67//94 
f 61//95 63//95 68//95 
f 69//96 70//96 71//96 
f 72//97 73//97 74//97 
f 75//98 76//98 77//98 
f 78//99 79//99 80//99 
f 45//100 53//100 52//100 
f 45//101 44//101 53//101 
f 44//102 46//102 53//102 
f 47//103 50//103 61//103 
f 47//104 44//104 50//104 
f 44//105 43//105 50//105 
f 48//106 56//106 55//106 
f 48//107 45//107 56//107 
f 45//108 52//108 56//108 
f 49//109 59//109 58//109 
f 49//110 48//110 59//110 
f 48//111 55//111 59//111 
f 50//112 62//112 61//112 
f 50//113 49//113 62//113 
f 49//114 58//114 62//114 
f 51//115 68//115 78//115 
f 51//116 47//116 68//116 
f 47//117 61//117 68//117 
f 54//118 64//118 69//118 
f 54//119 53//119 64//119 
f 53//120 46//120 64//120 
f 57//121 65//121 81//121 
f 57//122 56//122 65//122 
f 56//123 52//123 65//123 
f 60//124 82//124 83//124 
f 60//125 59//125 66//125 
f 59//126 55//126 66//126 
f 63//127 67//127 75//127 
f 63//128 62//128 67//128 
f 62//129 58//129 67//129 
f 64//130 70//130 69//130 
f 64//131 51//131 70//131 
f 51//132 78//132 70//132 
f 65//133 84//133 81//133 
f 65//134 54//134 84//134 
f 54//135 69//135 84//135 
f 82//136 60//136 66//136 
f 66//137 57//137 82//137 
f 57//138 81//138 82//138 
f 67//139 76//139 75//139 
f 67//140 60//140 76//140 
f 60//141 83//141 76//141 
f 68//142 79//142 78//142 
f 68//143 63//143 79//143 
f 63//144 75//144 79//144 
f 71//145 80//145 73//145 
f 71//146 70//146 80//146 
f 70//147 78//147 80//147 
f 82//148 81//148 85//148 
f 81//149 84//149 72//149 
f 84//150 69//150 71//150 
f 73//151 86//151 87//151 88//151 
f 72//152 71//152 73//152 
f 77//153 86//153 73//153 
f 77//154 76//154 86//154 
f 76//155 83//155 86//155 
f 80//156 77//156 73//156 
f 80//157 79//157 77//157 
f 79//158 75//158 77//158 
f 89//159 90//159 91//159 
f 87//160 90//160 92//160 
f 89//161 91//161 93//161 
f 89//162 93//162 94//162 
f 89//163 94//163 95//163 
f 87//164 92//164 88//164 
f 96//165 85//165 97//165 
f 98//166 99//166 100//166 
f 101//167 102//167 103//167 
f 104//168 105//168 106//168 
f 96//169 97//169 107//169 
f 98//170 100//170 108//170 
f 101//171 103//171 109//171 
f 104//172 106//172 110//172 
f 111//173 112//173 113//173 
f 114//174 115//174 116//174 
f 117//175 118//175 119//175 
f 120//176 121//176 122//176 
f 123//177 124//177 125//177 
f 91//178 85//178 96//178 
f 91//179 90//179 85//179 
f 92//180 95//180 104//180 
f 92//181 90//181 95//181 
f 90//182 89//182 95//182 
f 93//183 99//183 98//183 
f 93//184 91//184 99//184 
f 91//185 96//185 99//185 
f 94//186 102//186 101//186 
f 94//187 93//187 102//187 
f 93//188 98//188 102//188 
f 95//189 105//189 104//189 
f 95//190 94//190 105//190 
f 94//191 101//191 105//191 
f 88//192 110//192 123//192 
f 88//193 92//193 110//193 
f 92//194 104//194 110//194 
f 97//195 74//195 111//195 
f 74//196 97//196 126//196 
f 100//197 107//197 114//197 
f 100//198 99//198 107//198 
f 99//199 96//199 107//199 
f 103//200 108//200 117//200 
f 103//201 102//201 108//201 
f 102//202 98//202 108//202 
f 106//203 109//203 120//203 
f 106//204 105//204 109//204 
f 105//205 101//205 109//205 
f 74//206 112//206 111//206 
f 74//207 88//207 112//207 
f 88//208 123//208 112//208 
f 107//209 115//209 114//209 
f 107//210 97//210 115//210 
f 97//211 111//211 115//211 
f 108//212 118//212 117//212 
f 108//213 100//213 118//213 
f 100//214 114//214 118//214 
f 109//215 121//215 120//215 
f 109//216 103//216 121//216 
f 103//217 117//217 121//217 
f 110//218 124//218 123//218 
f 110//219 106//219 124//219 
f 106//220 120//220 124//220 
f 113//221 125//221 127//221 
f 113//222 112//222 125//222 
f 112//223 123//223 125//223 
f 116//224 113//224 127//224 
f 116//225 115//225 113//225 
f 115//226 111//226 113//226 
f 119//227 116//227 127//227 
f 119//228 118//228 116//228 
f 118//229 114//229 116//229 
f 122//230 119//230 127//230 
f 122//231 121//231 119//231 
f 121//232 117//232 119//232 
f 125//233 122//233 127//233 
f 125//234 124//234 122//234 
f 124//235 120//235 122//235 
f 72//236 126//236 81//236 
f 88//237 74//237 73//237 
f 85//238 90//238 82//238 
f 84//239 71//239 72//239 
f 72//240 74//240 126//240 
f 87//241 86//241 90//241 
f 86//242 83//242 90//242 
f 82//243 90//243 83//243 
f 85//244 81//244 126//244 
f 85//245 126//245 97//245 
usemtl Norm_Branches
f 128//246 129//246 130//246 131//246 
f 132//247 133//247 128//247 131//247 
f 134//248 133//248 132//248 135//248 
f 136//249 134//249 135//249 137//249 
f 138//250 136//250 137//250 139//250 
f 140//251 141//251 138//251 139//251 
f 142//252 143//252 144//252 145//252 
f 129//253 146//253 147//253 130//253 
f 147//254 146//254 141//254 140//254 
f 148//255 149//255 150//255 151//255 
f 150//255 152//255 153//255 151//255 
f 153//255 154//255 151//255 
f 148//255 151//255 155//255 
f 153//256 152//256 129//256 128//256 
f 133//257 154//257 153//257 128//257 
f 151//258 154//258 133//258 134//258 
f 155//259 151//259 134//259 136//259 
f 148//260 155//260 136//260 138//260 
f 141//261 149//261 148//261 138//261 
f 152//262 150//262 146//262 129//262 
f 146//263 150//263 149//263 141//263 
f 156//264 143//264 142//264 157//264 
f 142//265 145//265 158//265 159//265 
f 160//266 159//266 158//266 161//266 
f 162//267 160//267 161//267 163//267 
f 164//268 163//268 165//268 166//268 
f 167//269 166//269 165//269 168//269 
f 169//270 168//270 170//270 171//270 
f 143//271 171//271 170//271 144//271 
f 172//272 173//272 174//272 175//272 
f 174//272 176//272 156//272 175//272 
f 156//273 157//273 175//273 
f 172//272 175//272 177//272 
f 157//274 142//274 159//274 175//274 
f 177//275 175//275 159//275 160//275 
f 172//276 177//276 160//276 162//276 
f 172//277 162//277 178//277 173//277 
f 174//278 173//278 178//278 169//278 
f 174//279 169//279 171//279 176//279 
f 176//280 171//280 143//280 156//280 
f 179//281 180//281 130//281 147//281 
f 181//282 182//282 183//282 179//282 
f 184//283 185//283 183//283 182//283 
f 186//284 185//284 139//284 137//284 
f 187//285 186//285 137//285 135//285 
f 187//286 135//286 132//286 188//286 
f 188//287 132//287 131//287 189//287 
f 180//288 189//288 131//288 130//288 
f 190//289 191//289 182//289 181//289 
f 192//290 184//290 182//290 191//290 
f 193//291 139//291 185//291 184//291 
f 194//292 181//292 179//292 147//292 
f 194//293 147//293 140//293 195//293 
f 193//294 195//294 140//294 139//294 
f 191//295 190//295 196//295 197//295 
f 192//296 191//296 197//296 198//296 
f 198//297 193//297 184//297 192//297 
f 196//298 190//298 181//298 194//298 
f 196//299 194//299 195//299 197//299 
f 198//300 197//300 195//300 193//300 
f 145//301 144//301 180//301 179//301 
f 145//302 179//302 183//302 158//302 
f 161//303 158//303 183//303 185//303 
f 163//304 161//304 185//304 186//304 
f 163//305 186//305 187//305 165//305 
f 165//306 187//306 188//306 168//306 
f 168//307 188//307 189//307 170//307 
f 144//271 170//271 189//271 180//271 
f 199//308 164//308 166//308 200//308 
f 201//309 200//309 166//309 167//309 
f 167//310 168//310 169//310 202//310 
f 164//311 203//311 162//311 163//311 
f 203//312 204//312 178//312 162//312 
f 202//313 169//313 178//313 204//313 
f 205//314 199//314 200//314 206//314 
f 207//315 206//315 200//315 201//315 
f 201//316 167//316 202//316 207//316 
f 199//317 205//317 203//317 164//317 
f 205//318 206//318 204//318 203//318 
f 207//319 202//319 204//319 206//319 
# 77 polygons - 248 triangles

