# 3ds Max Wavefront OBJ Exporter v0.97b - (c)2007 guruware
# File Created: 02.02.2016 20:11:10

mtllib arbol_nieve3.mtl

#
# object Forest_Assets001
#

v  5.1429 1.5791 -7.6575
v  4.9888 1.5886 -7.5940
v  5.2846 3.4245 -7.6279
v  5.4102 3.4245 -7.6799
v  5.5311 3.3570 -7.6235
v  5.2947 1.5329 -7.5907
v  5.3595 1.5436 -7.4366
v  5.5844 3.3757 -7.4991
v  5.2981 1.5878 -7.2845
v  5.5357 3.4235 -7.3767
v  5.1462 1.6330 -7.2230
v  5.4135 3.4724 -7.3278
v  5.2698 3.4010 -7.3740
v  4.9892 1.6311 -7.2867
v  5.4405 5.2757 -7.7846
v  5.4790 5.2757 -7.8775
v  5.4378 4.9392 -7.8290
v  5.3958 4.9406 -7.7325
v  4.9253 1.5985 -7.4398
v  5.2326 3.4245 -7.5023
v  5.0637 -0.2085 -7.1392
v  4.8869 -0.2085 -7.2124
v  4.8137 -0.2085 -7.3892
v  5.3137 -0.2085 -7.3892
v  4.8869 -0.2085 -7.5660
v  5.0637 -0.2085 -7.6392
v  5.2405 -0.2085 -7.5660
v  5.2405 -0.2085 -7.2124
v  5.4146 6.9677 -7.7047
v  5.4012 6.9475 -7.6675
v  5.4416 5.0179 -7.6444
v  5.4840 5.3431 -7.7013
v  5.5744 5.3251 -7.6589
v  5.5370 4.9871 -7.5987
v  5.6639 5.2773 -7.6906
v  5.6349 4.9402 -7.6304
v  6.1145 5.2674 -7.6546
v  5.6734 4.8927 -7.7244
v  6.1387 5.2076 -7.7119
v  6.1233 5.2076 -7.7866
v  5.6323 4.8718 -7.8221
v  5.6618 5.2054 -7.8697
v  5.5367 4.9392 -7.8700
v  5.5719 5.2757 -7.9160
v  5.4189 6.9388 -7.6299
v  5.4574 6.9467 -7.6140
v  5.4940 6.9666 -7.6291
v  5.6860 5.3425 -7.7698
v  5.5074 6.9867 -7.6663
v  5.4897 6.9954 -7.7039
v  5.4512 6.9876 -7.7198
v  5.2407 3.7766 -7.5516
v  5.2949 3.7701 -7.6606
v  5.5340 3.7692 -7.4214
v  5.4073 3.8131 -7.3899
v  5.5807 3.7287 -7.5383
v  5.5301 3.7128 -7.6568
v  5.4144 3.7701 -7.7101
v  4.8803 4.0476 -7.0519
v  4.8836 4.2390 -7.0912
v  4.7628 4.0274 -7.1676
v  4.7729 4.2226 -7.2007
v  4.7942 3.9790 -7.0838
v  4.3642 5.0755 -6.7711
v  4.3960 5.1245 -6.7996
v  4.3291 5.0805 -6.8249
v  4.3642 5.1299 -6.8495
v  4.3258 5.0799 -6.7885
v  5.2941 3.8882 -7.4467
v  6.6810 6.0029 -7.6757
v  6.6964 5.9934 -7.7019
v  6.5130 5.7562 -7.7291
v  6.1219 5.3939 -7.8187
v  6.1131 5.4545 -7.6911
v  6.6547 6.0778 -7.7034
v  6.6605 6.0879 -7.7326
v  6.6630 6.0397 -7.7545
v  5.4060 3.9451 -7.3916
v  5.2928 4.0203 -7.4484
v  5.2394 3.9087 -7.5533
v  5.6750 5.3305 -7.6943
v  5.6971 5.3957 -7.7734
v  5.6729 5.2586 -7.8733
v  5.3973 6.9770 -7.6633
v  5.4112 6.9956 -7.7007
v  4.7791 4.2801 -7.2099
v  4.3555 5.1211 -6.7654
v  4.3171 5.1256 -6.7828
v  4.3204 5.1262 -6.8192
v  4.3592 5.1828 -6.8476
v  4.3911 5.1774 -6.7977
v  6.6608 6.0602 -7.7582
v  6.6584 6.1084 -7.7363
v  6.6525 6.0983 -7.7071
v  6.1123 5.4471 -7.8286
v  6.1036 5.5077 -7.7010
v  4.8230 4.3662 -7.1513
v  4.8898 4.2965 -7.1004
v  4.3814 5.2089 -6.8249
v  6.1216 5.5534 -7.7688
v  5.4903 6.9937 -7.6247
v  5.5042 7.0123 -7.6621
v  5.4868 7.0205 -7.6999
v  5.4147 6.9688 -7.6255
v  5.4483 7.0136 -7.7159
v  5.4532 6.9757 -7.6095
# 106 vertices

vn -0.3802 0.0440 -0.9239
vn 0.3874 -0.0670 -0.9195
vn 0.9181 -0.1256 -0.3760
vn 0.9119 -0.0982 0.3984
vn 0.3728 -0.0015 0.9279
vn -0.3635 0.1044 0.9257
vn -0.9186 0.0589 -0.3907
vn -0.9134 0.1404 -0.3821
vn -0.9298 0.1657 0.3288
vn 0.0000 -1.0000 -0.0000
vn -0.0000 -1.0000 -0.0000
vn -0.3818 0.0074 -0.9242
vn 0.3888 -0.0259 -0.9210
vn 0.9228 -0.0344 -0.3837
vn 0.9248 -0.0142 0.3803
vn 0.3819 0.0249 0.9239
vn -0.3792 0.0587 0.9235
vn -0.9228 0.0463 -0.3826
vn -0.9236 0.0671 0.3775
vn -0.9291 0.0032 -0.3698
vn -0.9262 0.1771 0.3329
vn -0.3747 0.2047 0.9043
vn 0.3751 0.1268 0.9183
vn 0.4400 -0.6359 0.6341
vn 0.5635 -0.8217 -0.0853
vn 0.3485 -0.1625 -0.9231
vn -0.3813 -0.0860 -0.9205
vn -0.8795 -0.0553 0.4727
vn -0.4154 -0.0563 0.9079
vn 0.3480 0.0000 0.9375
vn 0.9353 0.0807 0.3446
vn 0.9108 0.1239 -0.3938
vn 0.4833 0.1299 -0.8658
vn -0.3911 0.0782 -0.9170
vn -0.9110 -0.0244 -0.4117
vn 0.3532 0.1477 0.9238
vn 0.9339 0.0498 0.3540
vn 0.9206 -0.0336 -0.3891
vn 0.3818 -0.0851 -0.9203
vn -0.3816 -0.0758 -0.9212
vn 0.5813 0.1552 0.7988
vn -0.6526 -0.0916 -0.7522
vn -0.7713 -0.6355 0.0342
vn -0.0237 -0.4572 0.8891
vn 0.6503 0.1166 0.7507
vn -0.6924 -0.0426 -0.7202
vn -0.9157 -0.3987 0.0513
vn -0.1911 -0.3378 0.9216
vn -0.9037 0.0518 -0.4249
vn -0.9348 0.1744 0.3094
vn -0.3465 0.2033 0.9157
vn 0.3190 0.1358 0.9380
vn 0.9251 -0.0125 0.3794
vn 0.9204 -0.1329 -0.3677
vn 0.3466 -0.1625 -0.9238
vn 0.6083 -0.4447 0.6574
vn 0.7918 -0.5485 -0.2688
vn 0.1756 -0.1583 -0.9716
vn -0.0742 0.1847 0.9800
vn 0.8439 0.4237 0.3292
vn 0.6618 -0.3017 -0.6863
vn 0.4231 -0.2407 -0.8735
vn -0.2277 0.2090 0.9510
vn 0.4448 -0.0073 -0.8956
vn 0.8900 0.0028 -0.4559
vn -0.9744 0.1951 -0.1115
vn -0.9788 0.2011 -0.0386
vn -0.9261 -0.0636 -0.3718
vn -0.6152 -0.0294 -0.7878
vn -0.4230 -0.1913 0.8857
vn -0.9802 -0.1753 -0.0926
vn -0.5696 -0.0151 -0.8218
vn 0.6434 0.0298 0.7650
vn -0.6995 -0.0389 -0.7136
vn 0.9926 0.0880 -0.0841
vn 0.9596 0.1426 0.2427
vn 0.2703 -0.1320 -0.9537
vn -0.1553 0.1543 0.9758
vn -0.0282 0.6452 -0.7635
vn 0.6016 0.7962 0.0647
vn 0.2582 0.4621 -0.8484
vn 0.8422 0.5162 -0.1558
vn -0.8050 0.5933 0.0007
vn -0.2624 0.5933 0.7610
vn 0.5760 0.0471 0.8161
vn 0.5133 0.0360 0.8575
vn -0.3118 0.7974 0.5167
vn -0.1766 0.5566 -0.8118
vn -0.7121 0.6700 0.2100
vn -0.3995 0.4419 -0.8032
vn -0.0430 0.1267 0.9910
vn 0.1574 -0.1268 -0.9794
vn -0.2991 0.8944 0.3325
vn -0.2991 0.8944 0.3324
vn -0.2992 0.8944 0.3324
vn -0.9065 -0.1797 0.3821
vn -0.3445 -0.1891 0.9195
vn 0.4155 -0.0857 0.9056
vn 0.9265 0.0620 0.3711
vn 0.9071 0.1722 -0.3841
vn 0.3461 0.1826 -0.9203
vn -0.4152 0.0851 -0.9057
# 102 vertex normals

g Forest_Assets001
usemtl Snow_Branches
s off
f 1//1 2//1 3//1 4//1 
f 5//2 6//2 1//2 4//2 
f 7//3 6//3 5//3 8//3 
f 9//4 7//4 8//4 10//4 
f 11//5 9//5 10//5 12//5 
f 13//6 14//6 11//6 12//6 
f 15//7 16//7 17//7 18//7 
f 2//8 19//8 20//8 3//8 
f 20//9 19//9 14//9 13//9 
f 21//10 22//10 23//10 24//10 
f 23//11 25//11 26//11 24//11 
f 26//10 27//10 24//10 
f 21//10 24//10 28//10 
f 26//12 25//12 2//12 1//12 
f 6//13 27//13 26//13 1//13 
f 24//14 27//14 6//14 7//14 
f 28//15 24//15 7//15 9//15 
f 21//16 28//16 9//16 11//16 
f 14//17 22//17 21//17 11//17 
f 25//18 23//18 19//18 2//18 
f 19//19 23//19 22//19 14//19 
f 29//20 16//20 15//20 30//20 
f 15//21 18//21 31//21 32//21 
f 33//22 32//22 31//22 34//22 
f 35//23 33//23 34//23 36//23 
f 37//24 36//24 38//24 39//24 
f 40//25 39//25 38//25 41//25 
f 42//26 41//26 43//26 44//26 
f 16//27 44//27 43//27 17//27 
f 30//28 15//28 32//28 45//28 
f 46//29 45//29 32//29 33//29 
f 47//30 46//30 33//30 35//30 
f 47//31 35//31 48//31 49//31 
f 50//32 49//32 48//32 42//32 
f 50//33 42//33 44//33 51//33 
f 51//34 44//34 16//34 29//34 
f 52//35 53//35 3//35 20//35 
f 54//36 55//36 12//36 10//36 
f 56//37 54//37 10//37 8//37 
f 56//38 8//38 5//38 57//38 
f 57//39 5//39 4//39 58//39 
f 53//40 58//40 4//40 3//40 
f 59//41 12//41 55//41 60//41 
f 61//42 62//42 52//42 20//42 
f 61//43 20//43 13//43 63//43 
f 59//44 63//44 13//44 12//44 
f 64//45 59//45 60//45 65//45 
f 66//46 67//46 62//46 61//46 
f 66//47 61//47 63//47 68//47 
f 64//48 68//48 63//48 59//48 
f 18//49 17//49 53//49 52//49 
f 18//50 52//50 69//50 31//50 
f 34//51 31//51 69//51 55//51 
f 36//52 34//52 55//52 54//52 
f 36//53 54//53 56//53 38//53 
f 38//54 56//54 57//54 41//54 
f 41//55 57//55 58//55 43//55 
f 17//27 43//27 58//27 53//27 
f 70//56 37//56 39//56 71//56 
f 72//57 71//57 39//57 40//57 
f 40//58 41//58 42//58 73//58 
f 37//59 74//59 35//59 36//59 
f 75//60 70//60 71//60 76//60 
f 77//61 76//61 71//61 72//61 
f 72//62 40//62 73//62 77//62 
f 70//63 75//63 74//63 37//63 
f 78//64 55//64 69//64 79//64 
f 80//65 79//65 69//65 52//65 
f 81//66 82//66 48//66 35//66 
f 83//67 42//67 48//67 82//67 
usemtl Snow
f 84//68 85//68 29//68 30//68 
f 80//69 52//69 62//69 86//69 
f 87//70 88//70 68//70 64//70 
f 89//71 66//71 68//71 88//71 
f 89//72 90//72 67//72 66//72 
f 87//73 64//73 65//73 91//73 
f 86//74 62//74 67//74 90//74 
f 92//75 93//75 76//75 77//75 
f 94//76 75//76 76//76 93//76 
f 95//77 92//77 77//77 73//77 
f 96//78 74//78 75//78 94//78 
f 86//79 97//79 79//79 80//79 
f 98//80 78//80 79//80 97//80 
f 90//81 99//81 97//81 86//81 
f 91//82 98//82 97//82 99//82 
f 99//83 90//83 89//83 88//83 
f 91//84 99//84 88//84 87//84 
f 98//85 91//85 65//85 60//85 
f 78//86 98//86 60//86 55//86 
f 96//87 100//87 82//87 81//87 
f 95//88 83//88 82//88 100//88 
f 94//89 93//89 100//89 96//89 
f 92//90 95//90 100//90 93//90 
f 81//91 35//91 74//91 96//91 
f 83//92 95//92 73//92 42//92 
f 101//93 102//93 103//93 104//93 
f 103//94 105//94 85//94 104//94 
f 85//95 84//95 104//95 
f 101//94 104//94 106//94 
f 104//96 84//96 30//96 45//96 
f 104//97 45//97 46//97 106//97 
f 106//98 46//98 47//98 101//98 
f 101//99 47//99 49//99 102//99 
f 102//100 49//100 50//100 103//100 
f 105//101 103//101 50//101 51//101 
f 85//102 105//102 51//102 29//102 
# 102 polygons - 4 triangles

