# 3ds Max Wavefront OBJ Exporter v0.97b - (c)2007 guruware
# File Created: 02.02.2016 20:11:29

mtllib piedra.mtl

#
# object Object007
#

v  4.0561 0.5319 0.4712
v  4.2701 0.6320 -0.0432
v  3.8223 -0.0471 0.3486
v  4.5272 0.5287 -0.7083
v  5.1701 0.3922 -0.9497
v  4.6795 -0.0674 -0.9911
v  4.0704 -0.0848 -0.3515
v  3.9948 -0.2424 0.8793
v  4.8157 -0.4122 -0.9499
v  5.3477 -0.2240 -1.1597
v  5.1237 -0.5023 -0.8378
v  3.8845 -0.4604 0.0830
v  4.1946 -0.4928 -0.4787
v  3.9929 -0.5613 0.2786
v  4.3275 0.3831 0.8564
v  5.7073 -0.0179 -1.0191
v  5.9696 -0.1229 -0.5823
v  5.8245 -0.4327 -0.8101
v  4.4345 -0.5575 -0.3822
v  3.8630 -0.4028 0.7658
v  4.9666 0.3557 1.3241
v  4.2426 -0.3217 1.2824
v  4.9768 -0.1856 1.3410
v  5.9473 -0.0991 0.2499
v  5.5479 0.4312 1.0605
v  5.5734 -0.2793 0.7212
v  5.6422 -0.5553 -0.5986
v  6.0070 -0.4915 -0.3418
v  5.2720 -0.5501 0.3187
v  4.0804 -0.5759 0.4444
v  4.7303 -0.5652 -0.0484
v  4.2677 -0.5625 0.8846
v  4.0603 -0.4231 1.1858
v  3.9796 -0.4675 0.9889
v  4.3257 -0.4406 1.2861
v  4.7913 -0.4946 1.0866
v  4.0701 0.5951 0.4683
v  4.2841 0.6953 -0.0461
v  5.1841 0.4555 -0.9525
v  4.5413 0.5919 -0.7112
v  4.3415 0.4464 0.8536
v  4.9806 0.4190 1.3213
v  5.9836 -0.0597 -0.5852
v  5.7213 0.0454 -1.0220
v  5.9613 -0.0358 0.2470
v  5.5619 0.4944 1.0576
v  4.8494 1.0983 -0.4883
v  5.2307 1.2749 -0.0279
v  4.6572 1.2887 0.2196
v  5.1397 1.0781 0.6788
v  5.5611 0.8121 -0.5975
v  5.7248 0.8141 0.2123
v  3.8255 -0.2281 0.1834
v  3.7354 -0.2047 0.0495
v  3.7442 -0.0679 0.2116
v  3.6677 -0.2274 -0.0569
v  3.7151 -0.3584 -0.0762
v  3.7870 -0.2590 0.3339
v  3.8583 -0.3630 0.2483
v  3.8044 -0.3669 0.0725
v  3.5999 -0.4026 -0.1211
v  3.6094 -0.0283 0.2228
v  3.6504 -0.0704 0.0663
v  3.4901 -0.1386 0.1143
v  3.7303 -0.3518 0.4426
v  3.6723 -0.1783 0.3578
v  3.6153 -0.3756 0.4346
v  3.8330 -0.4410 0.2682
v  3.8030 -0.3984 0.3941
v  3.7607 -0.4614 0.3274
v  3.7620 -0.4519 -0.0384
v  3.8070 -0.4593 0.1192
v  3.7116 -0.4748 -0.0437
v  3.5495 -0.2611 -0.0399
v  3.5008 -0.1778 0.2833
v  3.7020 -0.4457 0.4552
v  3.7770 -0.4739 0.1239
v  3.6477 -0.4609 -0.1446
v  3.3915 -0.2673 0.0015
v  3.4746 -0.4338 -0.1010
v  3.3870 -0.4099 0.0012
v  3.4637 -0.3702 0.3227
v  3.3651 -0.2502 0.1436
v  3.4247 -0.4357 0.1922
v  3.6607 -0.4734 0.3760
v  3.5658 -0.4590 0.4104
v  3.5385 -0.4722 0.1885
v  3.6695 -0.4781 -0.0489
v  3.6768 -0.4757 0.1355
v  3.5636 -0.4751 -0.0712
v  3.5441 -0.4655 -0.1624
v  3.5912 -0.4756 -0.1519
v  3.4912 -0.4695 -0.1262
v  3.4583 -0.4597 -0.0002
# 94 vertices

vn -0.8677 0.4099 -0.2813
vn -0.2604 0.3587 -0.8964
vn -0.7190 0.1393 -0.6809
vn -0.8806 0.2736 0.3870
vn 0.0133 -0.7609 -0.6487
vn -0.4512 -0.8700 -0.1988
vn -0.6786 0.3838 0.6263
vn 0.8552 -0.0195 -0.5180
vn -0.1490 -0.9293 -0.3380
vn -0.7152 -0.6980 0.0363
vn -0.0850 0.0295 0.9959
vn 0.8032 -0.2330 0.5482
vn 0.1318 -0.9895 0.0588
vn 0.0299 -0.9994 0.0177
vn -0.1687 -0.9445 0.2819
vn -0.9386 0.0752 -0.3367
vn -0.8646 0.3815 -0.3269
vn -0.8335 0.3973 -0.3839
vn -0.2877 -0.2248 -0.9310
vn -0.1751 0.2722 -0.9462
vn 0.1546 0.3584 -0.9207
vn -0.8722 -0.1174 -0.4748
vn -0.7241 -0.0053 -0.6897
vn -0.5489 -0.3095 -0.7765
vn -0.8258 0.3907 0.4067
vn -0.8253 0.3873 0.4109
vn -0.9905 -0.1364 -0.0196
vn 0.1062 -0.8971 -0.4289
vn 0.1023 -0.7866 -0.6089
vn 0.4847 -0.2807 -0.8284
vn -0.0689 -0.9963 -0.0517
vn -0.2040 -0.9686 -0.1419
vn -0.1231 -0.9384 -0.3229
vn -0.5006 0.4911 0.7129
vn -0.7378 0.4120 0.5347
vn -0.6076 0.6206 0.4957
vn 0.3311 -0.9116 -0.2435
vn 0.9143 -0.1521 -0.3755
vn 0.9930 0.1160 0.0232
vn -0.0006 -0.9997 -0.0225
vn 0.0408 -0.9974 -0.0591
vn -0.0529 -0.9930 -0.1054
vn -0.8914 -0.1945 0.4093
vn -0.6122 -0.7853 0.0922
vn -0.3715 -0.9213 0.1147
vn 0.2138 -0.6943 0.6872
vn -0.0756 -0.0218 0.9969
vn -0.3573 -0.2215 0.9073
vn 0.4482 -0.7131 0.5391
vn 0.6634 -0.3029 0.6842
vn 0.4089 0.0362 0.9119
vn 0.3816 -0.8736 0.3020
vn 0.3586 -0.8765 0.3212
vn 0.7602 -0.5036 0.4106
vn 0.0811 -0.9892 0.1222
vn 0.0194 -0.9997 0.0125
vn 0.0189 -0.9997 0.0133
vn 0.0127 -0.9573 0.2889
vn -0.1944 -0.9304 0.3107
vn -0.2636 -0.9542 0.1412
vn -0.9192 0.1879 -0.3460
vn -0.3449 0.0338 -0.9380
vn -0.5779 0.1643 0.7994
vn 0.8165 -0.2054 -0.5395
vn 0.8389 -0.1622 0.5195
vn -0.9069 0.1837 -0.3791
vn -0.1389 -0.0142 -0.9902
vn -0.7640 0.1971 0.6144
vn 0.9761 -0.2148 0.0323
vn 0.4181 -0.0514 0.9070
vn -0.7133 0.5962 -0.3684
vn -0.2100 0.4981 -0.8413
vn 0.1448 0.9482 0.2827
vn 0.8265 0.3949 -0.4012
vn 0.5748 0.7662 0.2873
vn -0.0994 0.9538 -0.2834
vn -0.7110 0.6064 -0.3560
vn -0.7820 0.5863 -0.2113
vn 0.2837 0.5092 -0.8125
vn 0.1334 0.6249 -0.7692
vn 0.2490 0.8173 -0.5196
vn -0.4107 0.6853 0.6014
vn -0.3615 0.6434 0.6748
vn -0.4962 0.6332 0.5941
vn 0.9630 0.2688 0.0180
vn 0.8861 0.4269 -0.1802
vn 0.7117 0.6872 -0.1456
vn 0.9221 0.2680 0.2790
vn 0.6148 0.6912 0.3798
vn 0.2442 0.6460 0.7232
vn 0.7692 0.4672 -0.4360
vn 0.7530 0.3540 -0.5547
vn 0.8705 0.3883 0.3024
vn 0.8840 0.3587 0.2998
vn 0.9517 0.0897 -0.2936
vn 0.2729 0.2363 -0.9326
vn -0.4523 0.8244 -0.3403
vn -0.1443 0.3949 0.9073
vn 0.5273 -0.7588 0.3823
vn 0.4216 -0.8922 -0.1620
vn -0.2446 0.4158 -0.8759
vn -0.7549 0.6266 0.1937
vn -0.1013 0.1622 0.9815
vn 0.3341 -0.9387 0.0845
vn 0.4149 -0.8283 -0.3766
vn -0.7563 0.0250 -0.6537
vn -0.9085 -0.1950 0.3697
vn -0.1237 -0.9895 0.0744
vn -0.0317 -0.9994 0.0144
vn -0.1346 -0.9445 -0.2997
vn 0.2627 0.9468 -0.1861
vn 0.7169 0.5132 -0.4719
vn 0.6796 0.4979 -0.5387
vn 0.8412 0.2229 -0.4925
vn 0.8290 0.2841 -0.4817
vn 0.8189 0.2769 -0.5027
vn 0.5038 0.5092 0.6978
vn 0.5183 0.5402 0.6630
vn 0.2611 0.7042 0.6602
vn 0.9280 -0.2248 0.2971
vn 0.8760 0.2722 0.3982
vn 0.6664 0.3584 0.6538
vn 0.9539 -0.1139 -0.2776
vn 0.9500 -0.1194 -0.2884
vn 0.9346 -0.3341 -0.1221
vn 0.1307 0.4605 -0.8780
vn 0.1551 0.4756 -0.8659
vn 0.6780 0.0435 -0.7337
vn -0.2004 0.7280 -0.6557
vn -0.4532 0.6046 -0.6551
vn -0.2747 0.5746 -0.7709
vn -0.5662 0.2688 0.7793
vn -0.3596 0.4269 0.8297
vn -0.3315 0.5509 0.7659
vn 0.2203 -0.9507 0.2184
vn 0.5625 -0.7488 0.3506
vn 0.5334 -0.0473 0.8446
vn 0.0818 -0.9963 -0.0269
vn 0.4136 -0.8968 -0.1569
vn 0.4431 -0.8959 0.0325
vn -0.2457 0.4165 -0.8753
vn -0.2440 0.4160 -0.8760
vn -0.2785 0.6874 -0.6708
vn -0.7567 0.2681 0.5963
vn -0.6221 0.7529 0.2145
vn -0.6781 0.7041 -0.2107
vn -0.0199 -0.9402 0.3401
vn -0.3022 -0.0961 0.9484
vn -0.5875 0.1160 0.8008
vn 0.0188 -0.9997 0.0124
vn 0.0247 -0.9977 0.0632
vn 0.1276 -0.9917 0.0177
vn 0.1748 -0.1946 -0.9652
vn 0.2752 -0.9135 -0.2997
vn 0.0896 -0.9917 -0.0926
vn -0.5716 -0.8160 -0.0860
vn -0.7391 0.1240 -0.6620
vn -0.5548 0.2919 -0.7791
vn -0.5725 -0.8199 0.0022
vn -0.9519 -0.2661 0.1520
vn -0.9820 0.0311 -0.1862
vn -0.3030 -0.9508 0.0655
vn -0.3014 -0.9489 0.0938
vn -0.7741 -0.4417 0.4535
vn -0.1467 -0.9892 -0.0035
vn -0.0214 -0.9997 0.0088
vn -0.0217 -0.9997 0.0078
vn -0.1127 -0.9925 0.0476
vn -0.0649 -0.9978 -0.0160
vn -0.0279 -0.9996 -0.0034
# 170 vertex normals

g Object007
usemtl Snow_Rock
s off
f 1//1 2//1 3//1 
f 4//2 5//2 6//2 
f 4//3 6//3 7//3 
f 1//4 3//4 8//4 
f 9//5 10//5 11//5 
f 12//6 13//6 14//6 
f 1//7 8//7 15//7 
f 16//8 17//8 18//8 
f 9//9 11//9 19//9 
f 12//10 14//10 20//10 
f 21//11 22//11 23//11 
f 24//12 25//12 26//12 
f 27//13 28//13 29//13 
f 30//14 31//14 32//14 
f 33//15 34//15 35//15 
f 3//16 7//16 12//16 
f 3//17 2//17 7//17 
f 2//18 4//18 7//18 
f 6//19 10//19 9//19 
f 6//20 5//20 10//20 
f 5//21 16//21 10//21 
f 7//22 13//22 12//22 
f 7//23 6//23 13//23 
f 6//24 9//24 13//24 
f 8//25 20//25 33//25 
f 8//26 3//26 20//26 
f 3//27 12//27 20//27 
f 11//28 18//28 27//28 
f 11//29 10//29 18//29 
f 10//30 16//30 18//30 
f 14//31 19//31 30//31 
f 14//32 13//32 19//32 
f 13//33 9//33 19//33 
f 15//34 22//34 21//34 
f 15//35 8//35 22//35 
f 8//36 33//36 22//36 
f 18//37 28//37 27//37 
f 18//38 17//38 28//38 
f 17//39 24//39 28//39 
f 19//40 31//40 30//40 
f 19//41 11//41 31//41 
f 11//42 27//42 31//42 
f 20//43 34//43 33//43 
f 20//44 14//44 34//44 
f 14//45 30//45 34//45 
f 23//46 35//46 36//46 
f 23//47 22//47 35//47 
f 22//48 33//48 35//48 
f 26//49 23//49 36//49 
f 26//50 25//50 23//50 
f 25//51 21//51 23//51 
f 29//52 26//52 36//52 
f 29//53 28//53 26//53 
f 28//54 24//54 26//54 
f 32//55 29//55 36//55 
f 32//56 31//56 29//56 
f 31//57 27//57 29//57 
f 35//58 32//58 36//58 
f 35//59 34//59 32//59 
f 34//60 30//60 32//60 
usemtl Snow
f 37//61 38//61 2//61 1//61 
f 39//62 5//62 4//62 40//62 
f 41//63 15//63 21//63 42//63 
f 43//64 17//64 16//64 44//64 
f 45//65 46//65 25//65 24//65 
f 40//66 4//66 2//66 38//66 
f 44//67 16//67 5//67 39//67 
f 41//68 37//68 1//68 15//68 
f 45//69 24//69 17//69 43//69 
f 42//70 21//70 25//70 46//70 
f 40//71 38//71 47//71 
f 40//72 47//72 39//72 
f 48//73 49//73 50//73 
f 44//74 51//74 43//74 
f 48//75 50//75 52//75 
f 47//76 49//76 48//76 
f 47//77 38//77 49//77 
f 38//78 37//78 49//78 
f 39//79 51//79 44//79 
f 39//80 47//80 51//80 
f 47//81 48//81 51//81 
f 50//82 41//82 42//82 
f 50//83 49//83 41//83 
f 49//84 37//84 41//84 
f 43//85 52//85 45//85 
f 43//86 51//86 52//86 
f 51//87 48//87 52//87 
f 52//88 46//88 45//88 
f 52//89 50//89 46//89 
f 50//90 42//90 46//90 
usemtl Norm_Rock
f 53//91 54//91 55//91 
f 56//92 54//92 57//92 
f 53//93 55//93 58//93 
f 53//94 58//94 59//94 
f 53//95 59//95 60//95 
f 56//96 57//96 61//96 
f 62//97 63//97 64//97 
f 65//98 66//98 67//98 
f 68//99 69//99 70//99 
f 71//100 72//100 73//100 
f 56//101 61//101 74//101 
f 62//102 64//102 75//102 
f 65//103 67//103 76//103 
f 68//104 70//104 77//104 
f 71//105 73//105 78//105 
f 79//106 80//106 81//106 
f 82//107 83//107 84//107 
f 85//108 86//108 87//108 
f 88//109 89//109 90//109 
f 91//110 92//110 93//110 
f 55//111 63//111 62//111 
f 55//112 54//112 63//112 
f 54//113 56//113 63//113 
f 57//114 60//114 71//114 
f 57//115 54//115 60//115 
f 54//116 53//116 60//116 
f 58//117 66//117 65//117 
f 58//118 55//118 66//118 
f 55//119 62//119 66//119 
f 59//120 69//120 68//120 
f 59//121 58//121 69//121 
f 58//122 65//122 69//122 
f 60//123 72//123 71//123 
f 60//124 59//124 72//124 
f 59//125 68//125 72//125 
f 61//126 78//126 91//126 
f 61//127 57//127 78//127 
f 57//128 71//128 78//128 
f 64//129 74//129 79//129 
f 64//130 63//130 74//130 
f 63//131 56//131 74//131 
f 67//132 75//132 82//132 
f 67//133 66//133 75//133 
f 66//134 62//134 75//134 
f 70//135 76//135 85//135 
f 70//136 69//136 76//136 
f 69//137 65//137 76//137 
f 73//138 77//138 88//138 
f 73//139 72//139 77//139 
f 72//140 68//140 77//140 
f 74//141 80//141 79//141 
f 74//142 61//142 80//142 
f 61//143 91//143 80//143 
f 75//144 83//144 82//144 
f 75//145 64//145 83//145 
f 64//146 79//146 83//146 
f 76//147 86//147 85//147 
f 76//148 67//148 86//148 
f 67//149 82//149 86//149 
f 77//150 89//150 88//150 
f 77//151 70//151 89//151 
f 70//152 85//152 89//152 
f 78//153 92//153 91//153 
f 78//154 73//154 92//154 
f 73//155 88//155 92//155 
f 81//156 93//156 94//156 
f 81//157 80//157 93//157 
f 80//158 91//158 93//158 
f 84//159 81//159 94//159 
f 84//160 83//160 81//160 
f 83//161 79//161 81//161 
f 87//162 84//162 94//162 
f 87//163 86//163 84//163 
f 86//164 82//164 84//164 
f 90//165 87//165 94//165 
f 90//166 89//166 87//166 
f 89//167 85//167 87//167 
f 93//168 90//168 94//168 
f 93//169 92//169 90//169 
f 92//170 88//170 90//170 
# 10 polygons - 160 triangles

